<?xml version="1.0" encoding="UTF-8" standalone="no" ?>
<!DOCTYPE svg PUBLIC "-//W3C//DTD SVG 1.1//EN" "http://www.w3.org/Graphics/SVG/1.1/DTD/svg11.dtd">
<svg xmlns="http://www.w3.org/2000/svg" xmlns:xlink="http://www.w3.org/1999/xlink" version="1.1" width="1280" height="1024" viewBox="0 0 1280 1024" xml:space="preserve">
<desc>Created with Fabric.js 5.3.0</desc>
<defs>
</defs>
<g transform="matrix(1 0 0 1 640 512)" id="background-logo"  >
<rect style="stroke: none; stroke-width: 0; stroke-dasharray: none; stroke-linecap: butt; stroke-dashoffset: 0; stroke-linejoin: miter; stroke-miterlimit: 4; fill: rgb(255,255,255); fill-opacity: 0; fill-rule: nonzero; opacity: 1;"  paint-order="stroke"  x="-640" y="-512" rx="0" ry="0" width="1280" height="1024" />
</g>
<g transform="matrix(1.9211538461538462 0 0 1.9211538461538462 640 396.2404074318373)" id="logo-logo"  >
<g style=""  paint-order="stroke"   >
		<g transform="matrix(0.12949506955983586 0 0 0.12949506955983586 0.1826196790883472 -49.61771668291024)"  >
<path style="stroke: none; stroke-width: 1; stroke-dasharray: none; stroke-linecap: butt; stroke-dashoffset: 0; stroke-linejoin: miter; stroke-miterlimit: 4; fill: rgb(12,68,172); fill-rule: nonzero; opacity: 1;"  paint-order="stroke"  transform=" translate(-1025.5, -647)" d="M 1023 205 L 1025 206 C 1025.423 207.948 1025.423 207.948 1025.676 210.547 L 1025.9879999999998 213.503 L 1026.312 216.75 C 1027.3820660800473 226.4815105603792 1028.7788543139818 236.17431372527923 1030.5 245.81199999999998 C 1032.349243632424 256.2000457406043 1034.038443808798 266.61594672947945 1035.5669999999998 277.05599999999913 C 1036.396 282.694 1037.255 288.32800000000003 1038.11 293.963 L 1039.096 300.476 C 1040.053 306.794 1041.014 313.112 1042 319.426 C 1046.476 348.082 1050.501 376.803 1054.25 405.562 L 1054.628 408.458 C 1056.0716642431285 419.50143677174964 1057.436365777974 430.55505252540473 1058.7220000000004 441.6180000000009 Q 1059.192 445.62500000000006 1059.668 449.63000000000005 C 1062.8919999999998 476.72300000000007 1065.966 503.7900000000001 1068 531 L 1068.199 533.648 C 1069.159169780125 546.4300505610619 1070.0928384533643 559.2140780355684 1070.9999999999995 571.9999999999991 C 1074.054 571.344 1074.054 571.344 1075.052 569.239 L 1076.023 566.883 L 1077.156 564.164 L 1078.375 561.125 L 1079.695 557.891 C 1084.7949999999998 545.256 1089.4679999999998 532.4599999999999 1094.1699999999998 519.673 C 1097.7689999999998 509.89300000000003 1101.4229999999998 500.132 1105.08 490.373 Q 1106.7759999999998 485.843 1108.4689999999998 481.312 C 1112.456455520078 470.65728581188137 1116.5315937210855 460.03559226285046 1120.6939999999995 449.44800000000066 C 1123.1570806074396 443.1769511762434 1125.5781349019585 436.88947684012595 1127.9569999999994 430.5859999999996 L 1128.9139999999998 428.052 L 1130.8309999999997 422.973 C 1136.2749999999996 408.563 1141.8639999999996 394.243 1147.8279999999997 380.041 C 1152.0019999999997 370.081 1155.9089999999997 360.031 1159.7459999999996 349.938 L 1160.8509999999997 347.039 C 1161.6853109765325 344.82893814104733 1162.5099854760335 342.6152504485706 1163.3249999999994 340.3980000000003 L 1164.6599999999996 336.81199999999995 L 1165.8709999999996 333.52 C 1167 331 1167 331 1169 330 C 1168.305 339.621 1167.428 349.218 1166.477 358.816 L 1166.0320000000002 363.335 L 1165.0990000000002 372.777 Q 1164.5130000000001 378.691 1163.9320000000002 384.60499999999996 C 1162.4640000000002 399.53 1160.9700000000003 414.44999999999993 1159.3480000000002 429.359 C 1158.4820000000002 437.317 1157.6830000000002 445.263 1157.0770000000002 453.24399999999997 C 1155.6690000000003 471.577 1153.4350000000002 489.818 1151.1880000000003 508.06199999999995 L 1150.9240000000004 510.203 C 1148.4560000000004 530.2099999999999 1145.8250000000005 550.189 1142.7270000000005 570.11 L 1142.3690000000006 572.443 Q 1141.9030000000007 575.459 1141.4240000000007 578.473 C 1140.9980000000007 582.0179999999999 1140.9240000000007 585.433 1141.0000000000007 589 C 1144.5890000000006 588.401 1144.9100000000008 588.121 1147.2620000000006 584.965 C 1148.083121240668 583.6302092046323 1148.891822812754 582.2878179306048 1149.6880000000006 580.938 L 1151.0080000000005 578.764 C 1154.3330000000005 573.246 1157.4840000000006 567.634 1160.6090000000006 562.001 C 1166.7490000000007 550.986 1173.6810000000005 540.448 1180.5640000000005 529.887 C 1183.1886700222483 525.848806780266 1185.7651858242778 521.7795185935184 1188.2930000000006 517.6799999999998 C 1197.5950000000005 502.59299999999996 1207.4070000000006 487.91499999999996 1217.4000000000005 473.28099999999995 C 1224.9985241918666 462.1377988276017 1232.4491771947287 450.8944800881146 1239.7500000000005 439.5539999999995 C 1244.9650000000004 431.47799999999995 1250.3160000000005 423.493 1255.6600000000005 415.50199999999995 C 1260.0900000000006 408.87499999999994 1264.5080000000005 402.23999999999995 1268.9290000000005 395.60699999999997 L 1277.4060000000006 382.89099999999996 L 1280.7620000000006 377.85699999999997 L 1288.4420000000007 366.337 L 1289.8440000000007 364.234 L 1291.2190000000007 362.171 L 1292.5600000000006 360.15999999999997 L 1295.1250000000007 356.31199999999995 L 1296.3350000000007 354.49699999999996 L 1297.5060000000008 352.73999999999995 L 1298.6450000000007 351.0319999999999 L 1301.9270000000006 346.1099999999999 L 1305.9400000000005 340.0869999999999 Q 1310.9200000000005 332.6099999999999 1315.9190000000006 325.1469999999999 Q 1318.7430000000006 320.92899999999986 1321.5630000000006 316.70999999999987 Q 1322.9990000000005 314.56399999999985 1324.4370000000006 312.4209999999999 C 1333.3540000000005 299.1219999999999 1341.7790000000007 285.70999999999987 1349.3050000000005 271.5619999999999 L 1350.6800000000005 269.0159999999999 L 1351.8900000000006 266.7429999999999 C 1353 265 1353 265 1355 264 C 1353.725 272.243 1351.153 279.986 1348.465 287.848 C 1347.1 291.844 1345.7569999999998 295.846 1344.4099999999999 299.848 L 1343.5569999999998 302.377 C 1340.5119999999997 311.41700000000003 1337.5649999999998 320.488 1334.6249999999998 329.562 L 1332.9969999999998 334.579 Q 1329.197 346.281 1325.425 357.992 C 1309.417 407.688 1292.138 456.983 1272.4669999999999 505.357 C 1270.8884057207592 509.2879671721272 1269.331714915757 513.2276949289413 1267.7969999999998 517.1759999999997 C 1261.2749999999999 533.9000000000001 1254.4989999999998 550.464 1247.3329999999999 566.9250000000001 Q 1245.5199999999998 571.113 1243.742 575.316 C 1240.3935703936245 583.2455668586888 1236.9466370922007 591.1331769984362 1233.402 598.9770000000001 L 1232.4460000000001 601.089 C 1230.868165037906 604.5681680948996 1229.284829725198 608.0448391078562 1227.6960000000001 611.5189999999999 L 1225.941 615.371 L 1224.3690000000001 618.8059999999999 C 1223.0710000000001 621.834 1221.9910000000002 624.8599999999999 1221.0000000000002 627.9999999999999 C 1225.2940000000003 625.7079999999999 1228.4750000000001 622.7309999999999 1231.8120000000001 619.2499999999999 C 1235.6802396942483 615.2518984767332 1239.7287776905976 611.4322648787598 1243.9450000000002 607.8029999999999 C 1247.3460000000002 604.8189999999998 1250.5980000000002 601.6809999999999 1253.8750000000002 598.5619999999999 C 1259.7020000000002 593.0589999999999 1265.6540000000002 587.901 1272.0000000000002 582.9999999999999 Q 1274.7250000000001 580.7899999999998 1277.4380000000003 578.5619999999999 L 1280.2150000000004 576.2849999999999 L 1283 574 L 1288.5 569.5 L 1291.266 567.234 Q 1293.932 565.056 1296.6090000000002 562.8910000000001 C 1302.6660000000002 557.9810000000001 1308.574 552.9230000000001 1314.45 547.8000000000001 C 1318.959 543.878 1323.547 540.07 1328.191 536.3090000000001 C 1332.115 533.0840000000001 1335.954 529.7640000000001 1339.8 526.4480000000001 C 1343.4038822462855 523.3478135933589 1347.0542970233093 520.3021341958349 1350.7499999999995 517.3120000000006 C 1355.127 513.7610000000001 1359.308 510.04200000000014 1363.473 506.24600000000015 C 1366.07 503.93800000000016 1368.734 501.74400000000014 1371.4379999999999 499.5620000000001 C 1376.206 495.70600000000013 1380.725 491.6350000000001 1385.234 487.48000000000013 C 1388.0049999999999 484.9950000000001 1390.8509999999999 482.64600000000013 1393.75 480.3120000000001 C 1398.121 476.7880000000001 1402.151 473.0860000000001 1406 469.0000000000001 L 1408 470.0000000000001 C 1401.191 482.2020000000001 1394.297 494.3230000000001 1386.945 506.2070000000001 C 1384.0629999999999 510.8730000000001 1381.2559999999999 515.5830000000001 1378.4479999999999 520.2950000000001 C 1372.687 529.9580000000001 1366.8239999999998 539.5210000000001 1360.656 548.9300000000001 C 1357.8229999999999 553.254 1355.065 557.624 1352.312 562.0000000000001 C 1346.943 570.5290000000001 1341.5169999999998 579.0200000000001 1336.079 587.5050000000001 C 1331.0217427866805 595.3989535051653 1325.9807321174421 603.3033035679595 1320.9560000000004 611.2179999999985 C 1312.3259999999998 624.7990000000001 1303.5549999999998 638.282 1294.704 651.72 Q 1292.636 654.861 1290.57 658.004 L 1289.311 659.914 C 1284.904 665.596 1284.904 665.596 1283.125 672.125 C 1284.174 674.372 1284.933 675.598 1287 677 C 1290.835 676.579 1293.426 675.352 1296.633 673.262 L 1299.295 671.544 L 1302.125 669.688 L 1308.094 665.832 L 1311.1090000000002 663.874 C 1315.2659535138705 661.1841963725095 1319.4380196508794 658.5178207708846 1323.625 655.875 L 1325.9650000000001 654.395 C 1332.3080000000002 650.399 1338.7300000000002 646.545 1345.171 642.708 C 1351.8110000000001 638.741 1358.383 634.67 1364.938 630.562 L 1368.018 628.633 Q 1373.832 624.989 1379.643 621.34 C 1391.742 613.751 1403.989 606.4390000000001 1416.324 599.2420000000001 C 1424.3017289959953 594.5885572763507 1432.2462632267827 589.8784381691871 1440.1570000000006 585.1119999999997 C 1445.967 581.6120000000001 1451.8010000000002 578.1560000000001 1457.6570000000002 574.7350000000001 C 1462.1340000000002 572.1140000000001 1466.5850000000003 569.4530000000001 1471.0310000000002 566.7810000000002 C 1478.2293422919383 562.4617989048595 1485.4403734859961 558.1637803121456 1492.664 553.8870000000004 C 1514.3850000000002 541.0910000000001 1514.3850000000002 541.0910000000001 1535.8950000000002 527.9450000000002 C 1545.9238094063055 521.6628838749978 1556.0861441750176 515.5964901375728 1566.3750000000002 509.7500000000002 L 1568.2150000000001 508.70500000000015 L 1571.8270000000002 506.65300000000013 C 1589.6280000000002 496.54200000000014 1607.4510000000002 486.0820000000001 1624.0000000000002 474.0000000000001 L 1626.0000000000002 475.0000000000001 C 1622.7916265255192 478.24756360993933 1619.5043104204494 481.4161775613013 1616.1410000000003 484.5030000000001 C 1609.4580000000003 490.6590000000001 1602.9320000000002 496.9590000000001 1596.5000000000002 503.3750000000001 L 1594.2550000000003 505.6060000000001 L 1592.0940000000003 507.7730000000001 L 1590.2090000000003 509.6620000000001 C 1588.3080000000002 511.6740000000001 1586.5080000000003 513.729 1584.7070000000003 515.8290000000001 C 1581.2330000000004 519.821 1577.4990000000003 523.4040000000001 1573.5940000000003 526.969 C 1567.8576865119358 532.2688704434051 1562.2314859198639 537.6866932357707 1556.7190000000003 543.2189999999998 L 1554.6640000000002 545.2840000000001 Q 1551.5790000000002 548.3890000000001 1548.5000000000002 551.5000000000001 C 1545.7424288862094 554.2840733365606 1542.982094192285 557.0654080408377 1540.2190000000012 559.8440000000011 L 1538.3750000000002 561.7130000000002 C 1534.6450000000002 565.4630000000002 1530.7800000000002 568.9900000000002 1526.7770000000003 572.4470000000002 C 1524.7812114782892 574.2021149070499 1522.8541024130177 576.0338192306444 1521.0000000000002 577.9380000000003 L 1519.0000000000002 579.9610000000002 L 1517.0000000000002 582.0000000000002 C 1512.4100000000003 586.6800000000002 1507.7490000000003 591.1630000000002 1502.7810000000002 595.4410000000003 C 1500.583 597.3650000000002 1498.5330000000001 599.4040000000002 1496.5000000000002 601.5000000000002 C 1493.1900000000003 604.9110000000002 1489.7000000000003 608.0310000000002 1486.1140000000003 611.1440000000002 C 1482.7160000000003 614.1270000000002 1479.4190000000003 617.2150000000003 1476.1250000000002 620.3120000000002 L 1474.0180000000003 622.2890000000002 C 1469.3050000000003 626.7260000000002 1464.7140000000002 631.2570000000002 1460.1680000000003 635.8630000000002 C 1457.5030000000004 638.4900000000001 1454.7050000000004 640.9240000000002 1451.8630000000003 643.3550000000001 C 1449.3850000000002 645.5430000000001 1447.0960000000002 647.8930000000001 1444.7810000000002 650.2500000000001 C 1442.2810000000002 652.7060000000001 1439.6230000000003 654.9630000000001 1436.9690000000003 657.2500000000001 C 1434.4940000000004 659.4500000000002 1432.1930000000002 661.7940000000001 1429.8750000000002 664.1560000000001 C 1428.0670000000002 665.9340000000001 1426.2060000000001 667.5970000000001 1424.2850000000003 669.2500000000001 C 1420.0800000000004 672.9080000000001 1415.9930000000004 676.6770000000001 1411.9380000000003 680.5000000000001 L 1409.7270000000003 682.5800000000002 C 1404.1056773652895 687.9012756723372 1398.5869946030523 693.3299418607932 1393.1740000000002 698.8630000000003 C 1390.3210000000001 701.7580000000002 1387.4260000000002 704.5320000000002 1384.3380000000002 707.1750000000002 C 1377.1090000000002 713.4710000000002 1370.3880000000001 720.3100000000002 1363.5880000000002 727.0620000000001 Q 1360.987 729.6380000000001 1358.3690000000001 732.1990000000001 C 1355.8405690418158 734.6777680179214 1353.3215509147692 737.1661192576199 1350.812 739.6640000000002 L 1348.4360000000001 741.9720000000001 L 1346.2700000000002 744.147 L 1344.351 746.041 C 1342.631 748.5350000000001 1342.661 750.0290000000001 1343 753 C 1343.936 755.02 1343.936 755.02 1346 756 C 1351.251 755.551 1355.993 754.155 1360.93 752.402 L 1363.252 751.5970000000001 Q 1365.75 750.7310000000001 1368.2459999999999 749.8570000000001 C 1372.831 748.253 1377.426 746.676 1382.0199999999998 745.0980000000001 L 1384.9589999999998 744.0870000000001 C 1412.6499999999999 734.5880000000001 1440.5109999999997 725.6080000000001 1468.5829999999999 717.3010000000002 C 1481.495 713.4770000000002 1494.339 709.4600000000002 1507.168 705.3650000000001 C 1514.75 702.9490000000001 1522.34 700.5790000000002 1529.9769999999999 698.3400000000001 Q 1534.2699999999998 697.0780000000002 1538.562 695.8120000000001 L 1540.6299999999999 695.2030000000001 C 1550.3069999999998 692.3310000000001 1559.628 688.9800000000001 1568.7759999999998 684.691 C 1575.6919999999998 681.466 1575.6919999999998 681.466 1579.9999999999998 682 C 1576.6819999999998 685.741 1572.8149999999998 687.974 1568.4999999999998 690.375 C 1562.0379999999998 694.078 1555.8779999999997 698.055 1549.8119999999997 702.375 C 1541.2349999999997 708.484 1532.5239999999997 714.366 1523.7499999999998 720.188 C 1512.2279999999998 727.827 1512.2279999999998 727.827 1500.8119999999997 735.625 C 1490.8629999999996 742.528 1480.7509999999997 749.193 1470.6659999999997 755.895 C 1467.637560610844 757.9070180127335 1464.6148815829458 759.9276929429409 1461.5979999999993 761.9570000000003 C 1446.2539999999997 772.279 1430.5399999999997 781.989 1414.6419999999998 791.431 Q 1410.4699999999998 793.9110000000001 1406.3049999999998 796.398 C 1378.422 813 1378.422 813 1375 813 L 1377 819 C 1400.988 817.938 1424.901 815.24 1448.773 812.743 C 1462.394 811.322 1476.0249999999999 810.1070000000001 1489.676 809.008 L 1494.047 808.6560000000001 L 1496.1580000000001 808.4860000000001 C 1501.9040000000002 808.0190000000001 1507.6390000000001 807.4590000000001 1513.3750000000002 806.8750000000001 C 1519.8580000000002 806.2210000000001 1526.3020000000001 805.8450000000001 1532.8120000000001 805.6250000000001 C 1542.527 805.2650000000001 1552.151 804.3300000000002 1561.8120000000001 803.3120000000001 C 1580.8580000000002 801.3090000000001 1599.93 799.7340000000002 1619.017 798.1950000000002 C 1649.8690000000001 795.7230000000002 1649.8690000000001 795.7230000000002 1680.688 792.8750000000001 L 1683.0610000000001 792.6400000000001 C 1691.8940000000002 791.7590000000001 1700.7210000000002 790.8180000000001 1709.5470000000003 789.8670000000001 L 1712.2010000000002 789.5830000000001 C 1716.3700000000003 789.1360000000001 1720.5380000000002 788.6840000000001 1724.7040000000002 788.2180000000001 C 1732.1630000000002 787.3990000000001 1739.4830000000002 786.791 1747.0000000000002 787.0000000000001 C 1744.2080000000003 789.2780000000001 1741.7720000000002 790.6040000000002 1738.3440000000003 791.6910000000001 L 1735.5420000000004 792.5990000000002 L 1732.5000000000005 793.5620000000001 C 1723.5324593353341 796.4744998411757 1714.6145318225301 799.5375995790315 1705.75 802.7500000000003 C 1695.544964278198 806.4204845321826 1685.2941530503902 809.9624315011407 1675.0000000000005 813.3750000000001 L 1672.8390000000004 814.0930000000001 Q 1666.8270000000005 816.0860000000001 1660.8140000000003 818.076 C 1650.6348456979492 821.4441625308289 1640.4581762649002 824.8198301151216 1630.284000000007 828.2029999999968 C 1627.0143144233093 829.2902841844884 1623.7439805080478 830.3756177109489 1620.4730000000002 831.4590000000012 C 1606.4350000000004 836.107 1592.4540000000004 840.866 1578.5550000000005 845.919 C 1570.3410000000006 848.899 1562.0780000000004 851.67 1553.7500000000005 854.312 L 1547.2340000000004 856.399 L 1542.7550000000003 857.832 C 1537.499185461568 859.5152740757502 1532.2501432436507 861.2196211171046 1527.0080000000003 862.9449999999998 C 1497.233251252371 872.7137428548494 1467.2412395409553 881.8074042937911 1437.0550000000003 890.2189999999997 L 1435.0210000000002 890.7860000000001 L 1432.9800000000002 891.355 L 1430.9310000000003 891.927 Q 1428.8710000000003 892.5020000000001 1426.8080000000002 893.073 C 1418.9120000000003 895.262 1411.0900000000001 897.5509999999999 1403.3600000000001 900.283 C 1401.0000000000002 901 1401.0000000000002 901 1398.0000000000002 901 C 1398.2640000000001 904.432 1398.2640000000001 904.432 1399.0000000000002 908 C 1402.3080000000002 910.205 1404.2080000000003 910.515 1408.1050000000002 911.078 L 1411.9570000000003 911.6469999999999 L 1414.0340000000003 911.943 Q 1417.3460000000002 912.417 1420.6560000000004 912.909 C 1426.9540000000004 913.84 1433.2560000000003 914.749 1439.5570000000005 915.656 C 1469.3120000000006 919.9419999999999 1498.8970000000004 925.0809999999999 1528.4880000000005 930.3729999999999 Q 1533.9600000000005 931.3489999999999 1539.4360000000006 932.3159999999999 C 1550.1900000000005 934.2209999999999 1560.9350000000006 936.1299999999999 1571.6350000000007 938.3199999999999 C 1578.1360000000006 939.6339999999999 1584.6620000000007 940.8149999999999 1591.1880000000008 941.9999999999999 L 1593.3560000000007 942.3939999999999 C 1616.5540000000008 946.6349999999999 1616.5540000000008 946.6349999999999 1640.0000000000007 948.9999999999999 L 1640.0000000000007 951.9999999999999 L 1637.2510000000007 952.1959999999999 C 1619.7560000000008 953.473 1602.3610000000006 955.0179999999999 1585.0000000000007 957.5619999999999 L 1582.8120000000006 957.8829999999999 C 1576.0435216928415 958.8766440516864 1569.2867382662985 959.9483821106105 1562.5430000000006 961.0979999999998 C 1557.8060000000005 961.896 1553.0960000000007 962.458 1548.3120000000006 962.875 C 1539.4200000000005 963.715 1530.5540000000005 964.733 1521.6880000000006 965.812 L 1519.5990000000006 966.067 C 1508.5504167110103 967.4233623800575 1497.5060311426412 968.813702289081 1486.4660000000013 970.2380000000003 Q 1482.6720000000005 970.725 1478.8770000000006 971.21 C 1472.1150000000007 972.076 1465.3540000000007 972.943 1458.6020000000005 973.879 C 1439.4860000000006 976.481 1420.2380000000005 977.669 1401.0000000000005 979 L 1401.0000000000005 988 L 1403.4680000000005 988.899 C 1432.6200000000006 999.523 1432.6200000000006 999.523 1446.5360000000005 1005.031 C 1449.4030000000005 1006.159 1452.2780000000005 1007.269 1455.1520000000005 1008.3789999999999 C 1471.4350000000004 1014.6889999999999 1487.5330000000006 1021.3659999999999 1503.5790000000004 1028.252 Q 1510.0050000000003 1031.008 1516.4490000000003 1033.72 C 1536.0850000000003 1041.9850000000001 1555.4110000000003 1050.778 1574.6330000000003 1059.963 C 1590.7890000000002 1067.682 1606.9850000000004 1075.324 1623.5210000000002 1082.199 C 1627.535 1083.8780000000002 1631.3890000000001 1085.534 1635.0000000000002 1088 L 1635.0000000000002 1089 C 1628.6310000000003 1088.393 1622.5460000000003 1087.357 1616.3120000000001 1085.938 C 1608.9675504746144 1084.2932771744136 1601.6106700643422 1082.7045643499753 1594.2420000000004 1081.1720000000003 C 1536.4640000000002 1069.194 1480.4520000000002 1053.962 1426.0000000000002 1031 L 1423.8100000000002 1030.078 C 1402.6460000000002 1021.1659999999999 1381.6860000000001 1011.8829999999999 1360.891 1002.137 C 1344.5330000000001 994.4839999999999 1328.063 987.107 1311.5500000000002 979.7959999999999 C 1299.3812079692125 974.4045390769267 1287.2390605164453 968.9531395424581 1275.1239999999996 963.4419999999997 C 1268.2390000000003 960.3149999999999 1261.3430000000003 957.2099999999999 1254.4480000000003 954.1039999999999 Q 1250.8820000000003 952.4939999999999 1247.3180000000002 950.8749999999999 C 1204.5190000000002 931.4829999999998 1159.7180000000003 917.7939999999999 1114.8970000000002 903.9009999999998 C 1111.6950000000002 902.9049999999999 1108.497 901.8969999999998 1105.3000000000002 900.8849999999999 C 1089.496 895.8909999999998 1073.505 891.7339999999999 1057.438 887.6879999999999 L 1054.3760000000002 886.9129999999999 C 1028.4100000000003 880.3699999999999 1005.8700000000002 875.406 979.3120000000002 881.3119999999999 L 976.8590000000003 881.8449999999999 C 947.874 888.157 920.063 896.829 893 909 L 889.785 910.44 C 880.083 914.8100000000001 870.467 919.36 860.848 923.908 C 856.4783563334471 925.9741261866521 852.1080227563821 928.0387929684664 847.7369999999974 930.1020000000032 C 837.5132666423551 934.9380919804449 827.2146792117449 939.6143280897668 816.8449999999998 944.129 C 810.8848715127184 946.7204343474306 804.9554605679382 949.3819521403763 799.0579999999995 952.1130000000002 C 795.0433521915643 953.9685042440979 791.0223283629645 955.8101818245516 786.9949999999995 957.6380000000001 Q 784.0519999999999 958.976 781.1139999999999 960.327 C 762.1299999999999 968.991 742.4849999999999 975.267 722.626 981.571 C 709.1949999999999 985.8380000000001 695.894 990.22 682.8489999999999 995.567 C 680.8699999999999 996.377 678.887 997.173 676.9019999999999 997.969 C 669.5132366407418 1000.9625022108402 662.2571480803172 1004.2735847413558 655.1539999999999 1007.893 C 647.1119999999999 1011.9820000000001 638.9399999999998 1015.782 630.7499999999999 1019.562 L 628.2279999999998 1020.7280000000001 C 610.9489999999998 1028.6960000000001 593.4769999999999 1036.1480000000001 575.8319999999999 1043.2620000000002 Q 573.3269999999999 1044.2720000000002 570.8239999999998 1045.2880000000002 C 557.6919999999999 1050.5800000000002 544.3059999999998 1054.9260000000002 530.7209999999999 1058.9060000000002 C 527.9789041414099 1059.7137553981293 525.2415246048417 1060.537435967401 522.5089999999993 1061.3770000000004 C 507.7389999999999 1065.8360000000002 492.7719999999999 1068.813 477.6249999999999 1071.688 Q 473.91199999999986 1072.402 470.1989999999999 1073.1190000000001 Q 463.1629999999999 1074.477 456.1229999999999 1075.8220000000001 C 450.0677832178562 1076.9836474461426 444.0203175546359 1078.1853404081046 437.98099999999965 1079.4270000000004 C 433.65499999999986 1080.2590000000002 429.30399999999986 1080.89 424.9449999999999 1081.527 C 422.26099999999985 1081.958 419.64499999999987 1082.501 416.9999999999999 1083.125 C 413.9339999999999 1083.848 411.1699999999999 1084.205 407.9999999999999 1084 C 410.2619999999999 1081.465 412.3429999999999 1080.218 415.4609999999999 1078.898 L 418.2699999999999 1077.6899999999998 L 421.37499999999994 1076.3749999999998 Q 424.79099999999994 1074.8989999999997 428.2029999999999 1073.4139999999998 L 430.05999999999995 1072.6069999999997 C 438.12799999999993 1069.0889999999997 446.12699999999995 1065.4229999999998 454.12499999999994 1061.7499999999998 L 456.52299999999997 1060.6499999999999 C 466.609 1056.0199999999998 476.61799999999994 1051.2599999999998 486.573 1046.3549999999998 C 503.99899999999997 1037.7789999999998 521.828 1030.2579999999998 539.798 1022.9019999999998 Q 542.914 1021.6249999999998 546.028 1020.3399999999998 C 572.518 1009.4289999999999 599.4590000000001 999.7699999999998 626.625 990.6879999999998 L 628.806 989.9569999999998 Q 631.826 988.9469999999998 634.8520000000001 987.9489999999997 L 638.315 986.8029999999998 C 641 986 641 986 643 986 L 642 980 L 639.146 979.804 C 616.1703046993002 978.205072771308 593.2503809796274 975.8862672301317 570.4199999999998 972.851 C 565.6201838767074 972.213545831545 560.8195128710609 971.5825452612294 556.0179999999987 970.958 Q 543.6959999999999 969.352 531.3759999999999 967.733 L 524.7369999999999 966.8629999999999 C 509.2649999999999 964.8349999999999 493.8079999999999 962.7529999999999 478.39799999999985 960.279 C 472.4400502332726 959.3234979264024 466.4494600088812 958.584013598592 460.4379999999998 958.062 C 445.8719999999999 956.745 431.44099999999986 954.273 416.9999999999999 952 L 410.6559999999999 951.008 Q 404.3259999999999 950.014 397.9999999999999 949 L 397.9999999999999 947 C 401.3599999999999 945.88 404.1649999999999 945.759 407.7039999999999 945.583 C 415.7959999999999 945.1129999999999 423.7389999999999 943.961 431.7339999999999 942.664 L 436.2349999999999 941.951 Q 442.2489999999999 940.995 448.2589999999999 940.0260000000001 Q 453.2889999999999 939.2180000000001 458.3179999999999 938.4190000000001 C 476.7751771914341 935.4786584050759 495.22424672644826 932.4876471318797 513.6649999999993 929.446000000002 C 520.9699999999999 928.2440000000001 528.274 927.0390000000001 535.576 925.8210000000001 C 559.758 921.7880000000001 559.758 921.7880000000001 571.249 920.4630000000002 C 574.844 920.0190000000002 578.413 919.4850000000002 581.991 918.9240000000002 C 590.2665331851781 917.6284925083793 598.5759785454792 916.5597589163505 606.9099999999996 915.719 L 609.934 915.4110000000002 C 614.028 914.9980000000002 618.1229999999999 914.5900000000001 622.2189999999999 914.1980000000002 C 625.2629999999999 913.9040000000002 628.305 913.5940000000002 631.348 913.2810000000002 L 634.16 913.0250000000002 L 636.754 912.7520000000002 L 639.027 912.5300000000002 C 641.485 911.8700000000002 642.475 911.0210000000002 644 909.0000000000002 C 644.25 905.8750000000002 644.25 905.8750000000002 644 903.0000000000002 C 633.069 898.1270000000002 621.766 894.3870000000002 610.438 890.5620000000002 L 604.158 888.4320000000002 C 589.6220000000001 883.5120000000003 575.0450000000001 878.7280000000003 560.444 874.0080000000003 C 547.7157370729151 869.8926224662432 535.0255353253532 865.6604440169265 522.3749999999998 861.3120000000004 C 484.738 848.3810000000002 446.949 835.8960000000002 409.092 823.6250000000002 C 398.07877197872966 820.0515925503898 387.06876750512515 816.4682577610704 376.0619999999975 812.8750000000002 L 372.94 811.8570000000002 C 362.378 808.4120000000001 351.821 804.9530000000002 341.28499999999997 801.4260000000002 L 338.76399999999995 800.5820000000001 C 334.93198550326383 799.2993283064114 331.10198081263155 798.0106600615037 327.27399999999994 796.7159999999997 C 320.55199999999996 794.4540000000002 313.87799999999993 792.3360000000001 306.9549999999999 790.7670000000002 L 305 790 L 304 787 C 315.13 787.736 326.238 788.687 337.348 789.675 Q 341.771 790.0659999999999 346.19300000000004 790.4509999999999 C 354.819 791.2119999999999 363.42900000000003 792.012 372.023 793.0699999999999 C 379.442 793.982 386.851 794.5189999999999 394.312 794.938 C 410.937 795.935 427.522 797.319 444.11400000000003 798.751 Q 448.824 799.1569999999999 453.53600000000006 799.56 C 470.6917422409071 801.0275064669697 487.84641345686344 802.507506859458 504.9999999999882 804.0000000000023 L 508.407 804.296 Q 517.781 805.1110000000001 527.155 805.937 L 532.727 806.426 C 544.5003775028815 807.4568194102396 556.2591390685611 808.6482636830754 568.0000000000002 809.9999999999999 L 575.803 810.892 L 577.959 811.138 Q 587.2289999999999 812.196 596.4989999999999 813.241 Q 602.5339999999999 813.923 608.5669999999999 814.616 C 630.8109999999999 817.217 630.8109999999999 817.217 653.1409999999998 818.871 L 655.8479999999998 819.021 C 657.8969999999998 819.101 659.9499999999998 819.063 661.9999999999999 819 L 663.9999999999999 817 L 663.9999999999999 813 C 662.2589999999999 811.335 662.2589999999999 811.335 659.8549999999999 809.969 L 657.1419999999999 808.2800000000001 L 654.188 806.5000000000001 L 651.178 804.6380000000001 Q 648.098 802.7330000000002 645.006 800.8430000000002 C 640.603 798.1440000000002 636.2389999999999 795.3850000000002 631.875 792.6250000000002 L 629.696 791.2600000000002 C 623.384 787.2930000000002 617.192 783.1520000000003 611 779.0000000000002 C 594.6439140908401 768.0649419394767 578.247803961572 757.1898688938694 561.811999999999 746.3750000000002 C 545.171 735.4170000000003 528.541 724.4430000000002 512.0120000000001 713.3160000000003 C 497.6410000000001 703.6580000000002 483.04800000000006 694.3080000000002 468.16800000000006 685.4530000000002 C 466 684 466 684 465 682 C 468.427 682.598 471.428 683.475 474.629 684.828 C 493.588 692.5939999999999 513.047 698.236 532.717 703.893 C 538.2862809426246 705.4938570200774 543.8382656918063 707.1542854821415 549.3719999999998 708.8740000000001 C 554.279 710.397 559.194 711.893 564.1089999999999 713.3910000000001 C 590.3369999999999 721.392 616.5089999999999 729.4810000000001 642.5129999999999 738.1850000000001 C 662.6489999999999 744.951 662.6489999999999 744.951 682.8749999999999 751.4380000000001 L 685.6059999999999 752.3110000000001 L 688.0549999999998 753.0590000000002 L 690.1009999999999 753.6930000000002 C 692.3809999999999 754.0620000000002 693.8349999999999 753.7790000000002 695.9999999999999 753.0000000000002 C 697.9019999999999 751.2700000000002 697.9019999999999 751.2700000000002 698.9999999999999 749.0000000000002 C 698.6109999999999 745.3530000000002 697.0119999999998 743.6680000000002 694.4299999999998 741.1720000000003 L 692.2109999999998 738.9960000000002 L 689.8749999999998 736.7500000000002 C 684.9779999999997 731.9960000000002 680.2509999999997 727.2190000000003 675.8049999999997 722.0410000000003 C 672.3899999999998 718.1790000000003 668.7159999999997 714.5720000000002 665.0619999999997 710.9380000000003 L 662.7599999999996 708.6230000000003 C 659.3049999999996 705.1740000000003 655.8309999999997 701.8040000000003 652.1209999999996 698.6290000000002 C 646.2829999999997 693.6020000000002 640.9679999999996 688.0250000000002 635.5629999999996 682.5430000000002 C 630.4969999999996 677.4110000000003 625.4129999999997 672.3630000000003 619.9299999999996 667.6720000000003 C 616.3329999999996 664.5560000000003 612.8959999999996 661.2680000000003 609.4379999999996 658.0000000000002 L 607.2679999999997 655.9610000000002 C 603.9509999999997 652.8340000000003 600.6709999999997 649.6860000000003 597.4729999999997 646.4380000000002 C 594.4639999999997 643.4050000000002 591.3029999999998 640.6030000000002 588.0709999999997 637.8120000000002 C 584.4399999999997 634.6350000000002 580.9439999999997 631.3130000000002 577.4379999999996 628.0000000000002 L 575.2679999999997 625.9610000000002 C 571.8669999999997 622.7550000000002 568.5039999999997 619.5230000000003 565.2109999999997 616.2070000000002 C 562.9469999999997 613.9270000000002 560.6529999999997 611.7520000000002 558.1879999999996 609.6880000000002 C 554.9769999999996 606.9240000000002 551.9769999999996 604.0140000000002 548.9999999999997 601.0000000000002 C 545.6004392925286 597.5570493328578 542.0611330769452 594.2549423555892 538.3909999999995 591.1020000000001 C 530.0559999999996 583.7750000000002 521.9369999999997 576.1370000000002 514.2229999999996 568.1600000000002 C 512.3019999999996 566.2930000000002 510.3379999999996 564.5540000000002 508.3089999999996 562.8090000000002 C 502.82499999999965 558.0470000000003 497.7999999999996 552.8470000000002 492.7109999999996 547.6720000000003 C 488.5749999999996 543.4930000000003 484.3609999999996 539.5120000000003 479.9019999999996 535.6800000000003 C 476.7889999999996 532.9310000000003 473.9039999999996 529.9660000000002 470.9999999999996 527.0000000000003 C 466.7289999999996 522.6790000000003 462.4229999999996 518.5050000000003 457.7929999999996 514.5660000000004 C 453.0339999999996 510.4090000000004 448.6829999999996 505.84800000000035 444.5619999999996 501.06200000000035 C 438.8139999999996 494.39900000000034 432.5239999999996 488.37300000000033 425.8629999999996 482.6330000000004 C 423.1133444945446 480.22464137483655 420.488903497159 477.67696769646363 418 475 L 418 473 C 421.249 474.494 423.955 476.358 426.812 478.5 C 440.608 488.589 454.945 497.023 469.903 505.28 C 474.46000000000004 507.811 478.981 510.402 483.5 513 C 488.939 516.125 494.39 519.225 499.879 522.262 C 511.8171063089871 528.8656016687405 523.6079786769818 535.7319410406014 535.2429999999998 542.856 C 543.618 547.985 552.0590000000001 552.926 560.6800000000001 557.629 C 565.514 560.266 570.287 563.0070000000001 575.062 565.75 C 582.782 570.18 590.538 574.542 598.312 578.875 C 625.437 594.022 652.0840000000001 609.997 678.453 626.42 C 681.005 628.0029999999999 683.566 629.572 686.129 631.137 C 696.635 637.5649999999999 706.943 644.2349999999999 717.166 651.106 C 724.2568631835635 655.8641871757169 731.4272094297868 660.5028424514259 738.6740000000001 665.02 L 740.8090000000001 666.352 L 742.8820000000001 667.634 C 744.402 668.614 745.8900000000001 669.643 747.3560000000001 670.702 L 749.7230000000001 672.398 L 751.844 673.974 C 754.6120000000001 675.291 756.118 674.855 759 674 C 758.466 669.222 757.118 665.968 754.676 661.844 L 753.653 660.101 C 752.5468447355945 658.2295296748289 751.4331690665348 656.3625145828196 750.3120000000002 654.5000000000005 L 747.979 650.565 C 742.9093489121884 642.0586827478558 737.6875088100389 633.6439956394954 732.3159999999997 625.3249999999997 C 727.548 617.9140000000001 722.9390000000001 610.412 718.375 602.875 L 717.278 601.064 C 712.2189016788856 592.704112855856 707.1832152819691 584.3300800456794 702.171 575.9420000000001 C 699.9152043868373 572.16019872922 697.628795965791 568.3967418005692 695.3120000000001 564.6519999999997 C 689.41 555.1310000000001 683.847 545.46 678.405 535.668 C 672.659 525.343 666.725 515.134 660.733 504.951 C 658.9759672700386 501.9559439098182 657.2239648002416 498.95793968353325 655.4769999999996 495.95699999999965 L 652.062 490.125 L 650.525 487.48 C 647.376 482.124 643.986 477.043 640.318 472.02700000000004 C 639 470 639 470 639 468 C 642.932 469.589 645.33 472.163 648.25 475.188 C 652.6310593062167 479.67072291885626 657.2194069028827 483.946061784928 662 488.0000000000001 L 665.113 490.672 C 669.9289236522702 494.81260206875066 674.755941004313 498.9402835735046 679.5940000000012 503.05500000000075 C 685.734 508.28000000000003 691.769 513.583 697.677 519.071 C 700.816 521.9680000000001 704.042 524.7040000000001 707.375 527.375 C 713.103 531.984 718.427 536.973 723.785 542 C 726.781 544.808 729.846 547.523 732.957 550.203 C 735.092 552.081 737.179 554.007 739.264 555.9399999999999 C 743.469 559.838 747.695 563.617 752.188 567.188 C 758.746 572.467 764.774 578.2909999999999 770.871 584.09 C 774.2054004835123 587.2511317329813 777.5820373317371 590.3674118452535 781 593.4380000000001 C 786.816 598.732 792.351 604.292 797.863 609.9 C 802.399 614.4929999999999 807.099 618.8009999999999 812 623 L 813.719 624.538 C 816.868 627.426 816.868 627.426 821 628 C 820.428 621.82 818.514 616.577 816.238 610.828 L 815.08 607.85 C 813.8296173053856 604.6477980515959 812.5736153708967 601.4477931229617 811.3119999999996 598.2499999999985 L 808.705 591.579 C 800.83 571.4499999999999 792.875 551.348 784.688 531.343 C 776.42 511.127 769.059 490.665 762 470 L 760.877 466.717 C 758.5329999999999 459.828 756.2589999999999 452.917 754 446 L 752.385 441.063 Q 749.595 432.533 746.812 424 L 745.902 421.209 C 742.586 411.039 739.303 400.862 736.147 390.641 C 735.3040229858339 387.9653660241443 734.4363192137931 385.2975852759143 733.5440000000001 382.6379999999997 C 731.9760000000001 377.95900000000006 730.4950000000001 373.25500000000005 729.0310000000001 368.543 L 728.1930000000001 365.85 Q 726.8450000000001 361.519 725.5000000000001 357.18800000000005 L 723.6170000000001 351.136 C 720.6794340907171 341.7152853911076 717.7784122773882 332.2832144695934 714.9139999999996 322.84000000000066 L 714.1960000000001 320.466 L 713.4920000000002 318.14 C 706.5940000000002 294.288 706.5940000000002 294.288 697.7230000000002 271.152 C 696.8750000000002 268.626 697.2690000000002 267.503 698.0000000000002 265 C 701.8640000000003 270.578 705.3410000000002 276.279 708.6410000000002 282.206 C 717.8180000000002 298.646 728.2890000000002 314.148 738.8110000000001 329.747 C 742.8843227801918 335.81164609706707 746.8644568587147 341.93836559577693 750.7499999999997 348.12499999999966 C 756.1850000000001 356.749 761.7760000000001 365.253 767.4640000000002 373.712 C 770.1950000000002 377.78 772.9090000000002 381.86 775.6250000000001 385.938 Q 780.9790000000002 393.97499999999997 786.3430000000001 402.002 C 794.4850000000001 414.181 802.6220000000001 426.36 810.523 438.697 C 812.231 441.36 813.946 444.01800000000003 815.66 446.676 C 824.6659999999999 460.664 833.452 474.777 842.1379999999999 488.966 C 844.4071068684541 492.65627176001686 846.6874507836682 496.3396221858493 848.9789999999994 500.0159999999995 C 858.6619999999999 515.586 868.093 531.312 877.3749999999999 547.125 L 878.5789999999998 549.175 L 879.7499999999999 551.168 L 880.8869999999998 553.103 L 883.0979999999998 556.877 C 887.6563504529092 564.6525889650551 892.39564212271 572.3206788638925 897.3119999999998 579.8749999999998 L 898.8389999999999 582.275 L 900.3009999999999 584.492 L 901.5869999999999 586.472 C 903.2989999999999 588.323 904.5449999999998 588.624 906.9999999999999 589 L 906.6199999999999 586.448 C 902.5249999999999 558.4069999999999 900.0879999999999 530.285 897.8269999999999 502.04499999999996 C 897.1941821216923 494.2528356931498 896.4948232809222 486.4662183616175 895.7290000000002 478.68599999999975 C 895.103 472.226 894.555 465.762 894.035 459.293 L 893.795 456.308 L 893.3109999999999 450.274 C 892.1469999999999 435.82 890.9709999999999 421.41 889.0039999999999 407.041 C 887.8979999999999 398.771 887.3179999999999 390.488 886.7729999999999 382.164 C 886.0279999999999 370.881 885.0189999999999 359.627 883.9649999999999 348.37 C 883.367 341.897 882.8149999999999 335.504 882.9999999999999 329 C 886.5139999999999 331.343 886.6729999999999 332.236 887.8749999999999 336.152 L 888.9039999999999 339.401 L 889.9999999999999 342.938 C 893.0719999999999 352.506 896.4279999999999 361.851 900.3119999999999 371.125 C 905.0539999999999 382.48 909.3559999999999 393.948 913.5009999999999 405.53 C 916.3272798827782 413.41706202268324 919.2177089583134 421.28098917306403 922.1719999999997 429.1209999999993 C 927.3309999999999 442.83 932.3649999999999 456.584 937.3839999999999 470.344 L 939.6429999999999 476.533 C 946.2678645789541 494.65691630449084 952.8142592217015 512.8094196427527 959.282 530.9900000000022 C 964.0419999999999 544.384 968.9189999999999 557.725 973.9999999999999 571 L 976.9999999999999 571 C 978.2479999999999 568.504 978.2909999999999 566.517 978.4999999999999 563.73 L 978.7499999999999 560.537 L 978.9999999999999 557.188 Q 979.2459999999999 553.928 979.4999999999999 550.668 L 979.7189999999999 547.739 C 979.9999999999999 545 979.9999999999999 545 980.491 542.6320000000001 C 981.158 539.182 981.398 535.725 981.648 532.2270000000001 L 982.0020000000001 527.5730000000001 L 982.186 525.1250000000001 C 983.129 512.6490000000001 984.1990000000001 500.2410000000001 985.945 487.8480000000001 C 986.822 481.57600000000014 987.4680000000001 475.31100000000015 988 469.0000000000001 C 988.6611988685227 461.2530764437161 989.4947386064871 453.5218286661482 990.4999999999999 445.8120000000003 L 990.859 443.02500000000015 C 991.4533015948704 438.51870319054 992.1698991986312 434.0293809292876 993.008 429.5620000000002 C 994.081 423.7960000000001 994.749 418.0170000000001 995.375 412.1880000000001 C 996.617 401.02100000000013 998.042 389.8870000000001 999.554 378.7550000000001 C 1000.38 372.6710000000001 1001.182 366.5860000000001 1001.934 360.49200000000013 C 1003.082 351.2020000000001 1004.3399999999999 341.9280000000001 1005.6039999999999 332.65300000000013 Q 1006.199 328.28300000000013 1006.7889999999999 323.91400000000016 C 1007.9359999999999 315.46900000000016 1009.1149999999999 307.0430000000002 1010.5659999999999 298.6440000000002 C 1011.3539999999999 293.84400000000016 1011.9189999999999 289.0160000000002 1012.4999999999999 284.18800000000016 L 1013.2769999999999 277.87900000000013 L 1013.6519999999999 274.8290000000001 Q 1014.3409999999999 269.22500000000014 1015.0619999999999 263.6250000000001 L 1015.4729999999998 260.4140000000001 C 1015.8909999999998 257.7030000000001 1016.3959999999998 255.0610000000001 1016.9609999999999 252.3790000000001 C 1018.18 246.3950000000001 1018.8859999999999 240.3780000000001 1019.5619999999999 234.3120000000001 L 1019.9569999999999 230.8640000000001 C 1020.7889999999999 223.4020000000001 1021.4349999999998 215.96300000000008 1021.7889999999999 208.4650000000001 C 1022 206 1022 206 1023 205" stroke-linecap="round" />
</g>
		<g transform="matrix(0.12949506955983586 0 0 0.12949506955983586 -0.08806852950465327 85.16748640452789)"  >
<path style="stroke: none; stroke-width: 1; stroke-dasharray: none; stroke-linecap: butt; stroke-dashoffset: 0; stroke-linejoin: miter; stroke-miterlimit: 4; fill: rgb(12,68,172); fill-rule: nonzero; opacity: 1;"  paint-order="stroke"  transform=" translate(-1023.4096639778403, -1687.852007304863)" d="M 1043 1523 L 1044.948 1523.457 C 1084.625 1532.891 1120.6380000000001 1558.9440000000002 1154.188 1581.141 C 1156.5693696182238 1582.7146894938467 1158.9547105615159 1584.2823611618599 1161.3440000000005 1585.8440000000003 C 1168.892 1590.799 1176.227 1596.01 1183.5240000000001 1601.327 C 1187.604 1604.295 1191.71 1607.18 1195.938 1609.938 C 1215.7140000000002 1622.95 1234.977 1637.6550000000002 1253 1653 L 1255.559 1655.117 C 1266.431 1664.417 1276.915 1676.9099999999999 1278.238 1691.656 C 1278.556 1703.84 1275.623 1713.291 1267.473 1722.4489999999998 C 1256.962 1733.292 1244.8319999999999 1741.4689999999998 1232.311 1749.7939999999999 C 1229.4851642433953 1751.677612927598 1226.6644870207072 1753.5689533390296 1223.8489999999993 1755.4680000000005 C 1209.097 1765.4109999999998 1194.259 1775.0969999999998 1178.9769999999999 1784.2129999999997 C 1175.7554567121042 1786.1514827624785 1172.5430875449802 1788.1051712224257 1169.3399999999997 1790.0739999999998 C 1147.36 1803.5469999999998 1125.081 1816.4049999999997 1102.312 1828.4999999999998 L 1100.2109999999998 1829.6199999999997 C 1086.1949999999997 1837.0739999999996 1072.0889999999997 1844.4389999999996 1056.9379999999999 1849.3119999999997 L 1053.8439999999998 1850.3179999999998 C 1019.3899999999999 1861.2449999999997 992.2959999999998 1853.1419999999998 960.9289999999999 1837.0989999999997 Q 959.0009999999999 1836.0979999999997 957.0769999999999 1835.0879999999997 C 954.7778074757306 1833.8874103927765 952.4734527534673 1832.696732674286 950.1639999999993 1831.5159999999996 C 920.3659999999999 1816.1519999999998 891.1549999999999 1799.205 862.9999999999999 1780.9999999999998 L 858.1719999999999 1777.9019999999998 C 845.627 1769.8269999999998 833.2799999999999 1761.4719999999998 820.9999999999999 1752.9999999999998 L 818.2439999999999 1751.1019999999999 C 798.7789999999999 1737.6689999999999 798.7789999999999 1737.6689999999999 790.9999999999999 1730.9999999999998 L 788.3979999999999 1728.8009999999997 C 778.4789999999999 1720.1839999999997 770.7629999999999 1710.4149999999997 768.9999999999999 1696.9999999999998 L 768.6209999999999 1694.1329999999998 C 767.8349999999999 1681.2479999999998 774.5359999999998 1669.899 782.7699999999999 1660.3439999999998 C 790.9659999999999 1651.7319999999997 800.0189999999999 1644.5159999999998 809.5039999999999 1637.3949999999998 C 813.31 1634.5359999999998 817.0569999999999 1631.6089999999997 820.7939999999999 1628.6609999999998 C 827.6929999999999 1623.2279999999998 834.6809999999998 1618.0289999999998 841.9589999999998 1613.1149999999998 C 847.7699999999999 1609.1899999999998 853.4479999999999 1605.0969999999998 859.0959999999998 1600.9409999999998 C 866.2389999999998 1595.725 873.6219999999997 1590.8759999999997 880.9999999999998 1585.9999999999998 L 884.9129999999998 1583.4079999999997 C 916.8479999999997 1562.2749999999996 916.8479999999997 1562.2749999999996 930.9999999999998 1553.9999999999998 L 933.5659999999998 1552.4889999999998 C 952.5929999999998 1541.3349999999998 972.5349999999999 1529.6709999999998 993.9999999999998 1523.9999999999998 L 997.4649999999998 1523.0469999999998 C 1011.9929999999998 1519.5769999999998 1028.4819999999997 1519.4169999999997 1042.9999999999998 1522.9999999999998" stroke-linecap="round" />
</g>
		<g transform="matrix(0.12949506955983586 0 0 0.12949506955983586 38.45143643011865 63.02942024965586)"  >
<path style="stroke: none; stroke-width: 1; stroke-dasharray: none; stroke-linecap: butt; stroke-dashoffset: 0; stroke-linejoin: miter; stroke-miterlimit: 4; fill: rgb(12,68,172); fill-rule: nonzero; opacity: 1;"  paint-order="stroke"  transform=" translate(-1321.0233498936213, -1516.8951806849693)" d="M 1320 1386 Q 1322.13 1386.627 1324.262 1387.25 C 1365.282 1399.713 1405.3719999999998 1422.304 1442.382 1443.511 C 1445.68580279969 1445.382197693549 1449.0032245655589 1447.2292469303536 1452.334 1449.052 C 1459.045 1452.744 1465.644 1456.5459999999998 1472.1370000000002 1460.6129999999998 C 1476.4050000000002 1463.273 1480.7350000000001 1465.8279999999997 1485.0570000000002 1468.399 C 1495.5700000000002 1474.6599999999999 1505.9610000000002 1481.003 1516.0000000000002 1488 L 1517.7970000000003 1489.244 C 1534.3540000000003 1500.7379999999998 1551.9520000000002 1512.966 1556.6450000000002 1533.8709999999999 C 1557.0700000000002 1543.725 1552.3730000000003 1552.8039999999999 1546.0000000000002 1559.9999999999998 L 1544.3980000000001 1561.8479999999997 C 1529.9030000000002 1577.3969999999997 1509.6770000000001 1588.4259999999997 1492.0000000000002 1599.9999999999998 L 1489.1880000000003 1601.8469999999998 C 1475.8410000000003 1610.5739999999998 1461.9950000000003 1618.3659999999998 1448.0000000000002 1625.9999999999998 L 1445.3250000000003 1627.4629999999997 C 1410.4710000000002 1646.4329999999998 1374.8680000000004 1658.8499999999997 1335.0000000000002 1649.9999999999998 L 1331.9840000000002 1649.4139999999998 C 1301.928 1642.9489999999998 1272.738 1624.6819999999998 1246.0000000000002 1609.9999999999998 L 1242.7990000000002 1608.2509999999997 C 1226.9540000000002 1599.5759999999998 1211.4840000000002 1590.3509999999997 1196.0970000000002 1580.8979999999997 Q 1192.0770000000002 1578.4349999999997 1188.0390000000002 1576.0039999999997 C 1178.6570000000002 1570.3439999999996 1169.4690000000003 1564.4219999999996 1160.313 1558.4039999999998 C 1155.1260000000002 1555.0039999999997 1149.9170000000001 1551.6909999999998 1144.5620000000001 1548.5619999999997 C 1128.4830000000002 1539.0899999999997 1112.534 1528.9259999999997 1099.0000000000002 1515.9999999999998 L 1096.5590000000002 1513.6839999999997 C 1089.4840000000002 1506.3999999999996 1085.8010000000002 1498.1759999999997 1085.3750000000002 1487.9999999999998 C 1085.9510000000002 1474.5819999999999 1092.4560000000001 1466.0609999999997 1101.9490000000003 1457.1759999999997 C 1115.0520000000004 1446.1329999999998 1132.3660000000002 1439.1539999999998 1147.4690000000003 1431.3789999999997 C 1151.3205394455856 1429.4008617967309 1155.1540309247564 1427.3877787495383 1158.9690000000005 1425.3399999999995 C 1171.6310000000003 1418.5209999999997 1184.6230000000003 1412.4719999999998 1197.7030000000002 1406.5059999999996 Q 1202.1070000000002 1404.4919999999997 1206.5000000000002 1402.4529999999995 C 1224.8980000000001 1393.9699999999996 1243.1180000000002 1387.0969999999995 1263.0000000000002 1382.9999999999995 L 1265.3160000000003 1382.4579999999996 C 1282.5400000000002 1379.5189999999996 1303.4150000000002 1380.6729999999995 1320.0000000000002 1385.9999999999995" stroke-linecap="round" />
</g>
		<g transform="matrix(0.12949506955983586 0 0 0.12949506955983586 -38.65338335506186 62.73378073747699)"  >
<path style="stroke: none; stroke-width: 1; stroke-dasharray: none; stroke-linecap: butt; stroke-dashoffset: 0; stroke-linejoin: miter; stroke-miterlimit: 4; fill: rgb(12,68,172); fill-rule: nonzero; opacity: 1;"  paint-order="stroke"  transform=" translate(-725.596666489644, -1514.6121631679027)" d="M 937.875 1455.25 C 946.999 1463.168 953.058 1471.765 954.313 1484.062 C 953.499 1494.309 948.799 1501.5739999999998 942 1509 L 939.41 1511.871 C 931.548 1520.3000000000002 922.5459999999999 1526.622 913 1533 L 906.68 1537.266 C 892.6014754058076 1546.736668589021 878.3730043034556 1555.9825078006575 864.0000000000003 1565 L 860.963 1566.911 C 849.808 1573.9270000000001 838.6429999999999 1580.922 827.303 1587.636 C 824.392 1589.36 821.485 1591.091 818.578 1592.82 C 793.555 1607.7 793.555 1607.7 784 1613 L 781.503 1614.391 C 738.135 1638.472 698.2280000000001 1657.381 648.164 1643.9730000000002 C 618.3439999999999 1634.8840000000002 589.572 1616.4790000000003 564.293 1598.6030000000003 C 561.394 1596.5760000000002 558.434 1594.6910000000003 555.437 1592.8120000000004 C 541.465 1583.9290000000003 528.138 1574.0650000000003 515 1564.0000000000005 L 512.301 1561.9530000000004 C 505.15900000000005 1555.8910000000005 497.94000000000005 1546.6320000000005 497.00000000000006 1537.0000000000005 C 496.12500000000006 1525.8670000000004 500.11000000000007 1516.2400000000005 506.93700000000007 1507.5270000000005 C 515.3410000000001 1497.8180000000004 525.5020000000001 1490.3840000000005 536.1870000000001 1483.3750000000005 L 539.3230000000001 1481.3050000000005 C 562.9970000000001 1465.7470000000005 587.3040000000001 1451.3310000000006 612.1290000000001 1437.6880000000006 C 615.8380000000001 1435.6490000000006 619.5280000000001 1433.5790000000006 623.2150000000001 1431.5000000000005 C 696.1740000000002 1390.5450000000005 696.1740000000002 1390.5450000000005 731.3750000000001 1383.3120000000004 L 734.7110000000001 1382.6130000000003 C 797.2270000000001 1370.9570000000003 889.2610000000002 1417.8270000000002 937.8750000000001 1455.2500000000002" stroke-linecap="round" />
</g>
		<g transform="matrix(0.12949506955983586 0 0 0.12949506955983586 70.05719357387024 46.42733150262228)"  >
<path style="stroke: none; stroke-width: 1; stroke-dasharray: none; stroke-linecap: butt; stroke-dashoffset: 0; stroke-linejoin: miter; stroke-miterlimit: 4; fill: rgb(12,68,172); fill-rule: nonzero; opacity: 1;"  paint-order="stroke"  transform=" translate(-1565.0925430388286, -1388.6888419921881)" d="M 1591.404 1296.791 C 1594.2904996780617 1298.129422260557 1597.1831975181763 1299.4544365397062 1600.0819999999999 1300.7659999999998 C 1626.3390000000002 1312.7459999999999 1652.267 1325.5299999999997 1677.471 1339.5969999999998 C 1681.057 1341.5859999999998 1684.664 1343.5339999999997 1688.27 1345.4859999999996 C 1698.9988244477117 1351.3093187456243 1709.6478126886536 1357.278539364279 1720.214 1363.3919999999996 C 1723.204 1365.1179999999997 1726.2 1366.8339999999996 1729.196 1368.5509999999997 C 1766.965 1390.2809999999997 1766.965 1390.2809999999997 1772 1403.9999999999998 C 1772.968 1410.0159999999998 1772.434 1415.8439999999998 1769 1420.9999999999998 C 1760.217 1432.2949999999998 1748.915 1440.3189999999997 1737 1447.9999999999998 Q 1735.152 1449.2239999999997 1733.305 1450.4529999999997 C 1692.874 1477.1979999999996 1646.949 1504.3709999999996 1596.4740000000002 1494.5639999999999 C 1574.7010000000002 1489.8759999999997 1554.9840000000002 1481.695 1535.0000000000002 1471.9999999999998 L 1531.8760000000002 1470.4939999999997 C 1517.9060000000002 1463.7349999999997 1504.3400000000001 1456.3999999999996 1490.8940000000002 1448.6589999999997 C 1486.9330000000002 1446.3889999999997 1482.9520000000002 1444.1549999999997 1478.9720000000002 1441.9199999999996 C 1469.9560000000001 1436.8529999999996 1461.0160000000003 1431.6909999999996 1452.1800000000003 1426.3179999999995 C 1449.5840000000003 1424.7479999999996 1446.9780000000003 1423.1939999999995 1444.3700000000003 1421.6409999999996 C 1364.6840000000004 1374.1159999999995 1364.6840000000004 1374.1159999999995 1358.4770000000003 1354.9339999999997 C 1357.2510000000002 1349.9589999999998 1357.4810000000002 1346.4249999999997 1360.0000000000002 1341.9999999999998 C 1374.4800000000002 1321.1419999999998 1408.6460000000002 1311.8879999999997 1431.0000000000002 1302.9999999999998 L 1434.0500000000002 1301.7799999999997 C 1489.564 1279.6009999999997 1535.3730000000003 1270.5769999999998 1591.4040000000002 1296.7909999999997" stroke-linecap="round" />
</g>
		<g transform="matrix(0.12949506955983586 0 0 0.12949506955983586 -70.4500282178036 46.63932737669393)"  >
<path style="stroke: none; stroke-width: 1; stroke-dasharray: none; stroke-linecap: butt; stroke-dashoffset: 0; stroke-linejoin: miter; stroke-miterlimit: 4; fill: rgb(12,68,172); fill-rule: nonzero; opacity: 1;"  paint-order="stroke"  transform=" translate(-480.05338078138413, -1390.3259380977945)" d="M 526.5 1279.75 L 529.453 1279.688 C 543.6279999999999 1279.614 556.672 1283.15 569.938 1287.875 L 574.088 1289.329 C 677.825 1325.925 677.825 1325.925 687 1345 C 688.452 1351.406 686.882 1356.829 683.707 1362.445 C 671.483 1380.739 650.265 1391.652 632 1403 L 628.872 1404.951 C 606.462 1418.912 583.8829999999999 1432.252 560.355 1444.234 C 554.826352754297 1447.0581472803312 549.3185373234569 1449.9228913227353 543.8319999999986 1452.8280000000007 C 439.498 1507.863 439.498 1507.863 385.832 1491.3319999999999 C 351.318 1480.274 317.171 1458.5529999999999 289 1435.9999999999998 L 286.363 1433.9179999999997 C 279.374 1428.0209999999997 273.746 1420.8589999999997 272.562 1411.5619999999997 C 272.732 1403.1709999999996 277.87 1395.7869999999996 283.438 1389.8749999999998 C 296.075 1378.1499999999999 311.68899999999996 1370.6869999999997 326.80199999999996 1362.7019999999998 C 330.51265305005313 1360.718081069129 334.2071085797144 1358.7040144526702 337.885 1356.6599999999999 C 354.056 1347.7259999999999 370.537 1339.378 387 1330.9999999999998 L 388.881 1330.0409999999997 C 404.8790297331741 1321.896666823509 421.0507872414147 1314.0981881801445 437.38499999999976 1306.6509999999996 Q 441.063 1304.9719999999995 444.736 1303.2779999999996 C 471.072 1291.1369999999995 497.04699999999997 1279.9009999999996 526.5 1279.7499999999995" stroke-linecap="round" />
</g>
		<g transform="matrix(0.12949506955983586 0 0 0.12949506955983586 -0.4569519129114248 39.735884115662955)"  >
<path style="stroke: none; stroke-width: 1; stroke-dasharray: none; stroke-linecap: butt; stroke-dashoffset: 0; stroke-linejoin: miter; stroke-miterlimit: 4; fill: rgb(12,68,172); fill-rule: nonzero; opacity: 1;"  paint-order="stroke"  transform=" translate(-1020.5610351871021, -1337.0154662435662)" d="M 1021.813 1234.563 L 1025.804 1234.5890000000002 C 1035.7720000000002 1234.7670000000003 1044.5900000000001 1235.7640000000001 1054.001 1239.0010000000002 L 1056.171 1239.7010000000002 C 1078.8790000000001 1247.1340000000002 1100.441 1258.8960000000002 1121.5030000000002 1270.0570000000002 C 1127.747 1273.3590000000002 1134.0280000000002 1276.5790000000002 1140.3290000000002 1279.7700000000002 L 1143.2570000000003 1281.255 L 1149.2090000000003 1284.2700000000002 C 1184.1590000000003 1302.0000000000002 1184.1590000000003 1302.0000000000002 1199.0010000000002 1311.0000000000002 L 1200.9310000000003 1312.1670000000001 C 1209.0460000000003 1317.132 1219.0600000000002 1323.4430000000002 1222.0010000000002 1333.0010000000002 C 1222.8430000000003 1341.7250000000001 1221.9750000000001 1347.4870000000003 1216.3560000000002 1354.313 C 1213.101 1358.0700000000002 1209.5220000000002 1360.881 1205.4380000000003 1363.6870000000001 C 1204.3250000000003 1364.457 1204.3250000000003 1364.457 1203.1910000000003 1365.2440000000001 C 1166.5240000000003 1390.198 1123.3220000000003 1410.0700000000002 1081.6710000000003 1425.034 C 1079.2720562527443 1425.9059597817175 1076.881935573878 1426.802005023669 1074.5010000000002 1427.7220000000002 C 1038.5910000000001 1441.1360000000002 994.6430000000003 1443.7490000000003 958.0010000000002 1432.0010000000002 L 955.4900000000002 1431.2230000000002 C 949.8650000000002 1429.438 944.4330000000002 1427.2980000000002 939.0000000000002 1425.0010000000002 L 936.1000000000003 1423.7910000000002 C 836.0040000000002 1381.7150000000001 836.0040000000002 1381.7150000000001 821.6180000000003 1353.266 C 818.6950000000003 1345.8690000000001 817.5920000000003 1339.893 820.7500000000002 1332.374 C 826.0520000000002 1321.661 833.7150000000003 1314.666 843.9330000000002 1308.676 L 846.1010000000002 1307.406 C 858.0380000000002 1300.55 870.4740000000003 1294.581 882.8010000000003 1288.4679999999998 Q 886.9380000000002 1286.4119999999998 891.0710000000003 1284.3449999999998 C 904.3710000000002 1277.7049999999997 917.6870000000002 1271.1089999999997 931.1570000000003 1264.8159999999998 C 935.1400000000002 1262.9489999999998 939.0720000000002 1260.9829999999997 943.0000000000002 1259.0009999999997 Q 945.9670000000002 1257.5129999999997 948.9380000000002 1256.0309999999997 Q 951.0540000000002 1254.9729999999997 953.1680000000002 1253.9069999999997 C 962.5180000000003 1249.2139999999997 971.9390000000002 1245.0999999999997 981.8120000000002 1241.6239999999998 C 982.7180000000002 1241.3039999999999 983.6240000000003 1240.9819999999997 984.5570000000002 1240.6499999999999 C 996.9070000000003 1236.444 1008.7650000000002 1234.454 1021.8120000000002 1234.562" stroke-linecap="round" />
</g>
		<g transform="matrix(0.12949506955983586 0 0 0.12949506955983586 -31.594958646086827 26.32778344186067)"  >
<path style="stroke: none; stroke-width: 1; stroke-dasharray: none; stroke-linecap: butt; stroke-dashoffset: 0; stroke-linejoin: miter; stroke-miterlimit: 4; fill: rgb(12,68,172); fill-rule: nonzero; opacity: 1;"  paint-order="stroke"  transform=" translate(-780.1039518478221, -1233.4740671819845)" d="M 850 1152 L 852.273 1152.644 C 866.37 1156.655 880.054 1161.549 893.75 1166.75 L 896.937 1167.954 C 942.59 1185.205 942.59 1185.205 954 1193 L 955.863 1194.258 C 960.7410000000001 1197.913 964.4330000000001 1202.615 965.4490000000001 1208.68 C 965.7700000000001 1216.6570000000002 963.9100000000001 1221.5600000000002 958.8120000000001 1227.586 C 940.3140000000001 1247.24 912.9570000000001 1258.817 889.2810000000002 1270.84 C 886.7533453099926 1272.1264086092037 884.2270106479435 1273.4154092871481 881.7020000000002 1274.7069999999997 C 836.3060000000003 1297.879 836.3060000000003 1297.879 816.0000000000002 1304.9999999999998 L 812.7230000000002 1306.1749999999997 C 763.7210000000002 1323.6469999999997 712.2390000000001 1328.5599999999997 664.0320000000002 1305.8659999999998 C 657.3070000000001 1302.6709999999998 650.6470000000002 1299.3519999999999 644.0000000000001 1295.9999999999998 L 641.2390000000001 1294.6129999999998 C 602.9160000000002 1275.245 602.9160000000002 1275.245 596.0620000000001 1258.9999999999998 C 594.1920000000001 1252.9629999999997 594.1050000000001 1248.2069999999999 596.9380000000001 1242.5619999999997 C 605.397 1228.8479999999997 620.1050000000001 1221.8109999999997 633.8750000000001 1214.4379999999996 L 637.3570000000001 1212.5699999999997 C 651.3940000000001 1205.1059999999998 665.7260000000001 1198.2169999999996 680.037 1191.2969999999998 C 689.981 1186.4809999999998 699.8480000000001 1181.5669999999998 709.605 1176.3829999999998 C 715.4173762362876 1173.2863225183767 721.3006169508158 1170.3245300974554 727.25 1167.4999999999998 L 730.122 1166.1379999999997 C 770.822 1146.9709999999998 806.054 1139.4239999999998 850 1151.9999999999998" stroke-linecap="round" />
</g>
		<g transform="matrix(0.12949506955983586 0 0 0.12949506955983586 31.186378401364674 26.144165620231558)"  >
<path style="stroke: none; stroke-width: 1; stroke-dasharray: none; stroke-linecap: butt; stroke-dashoffset: 0; stroke-linejoin: miter; stroke-miterlimit: 4; fill: rgb(12,68,172); fill-rule: nonzero; opacity: 1;"  paint-order="stroke"  transform=" translate(-1264.9203796921424, -1232.0561149599168)" d="M 1279 1151 L 1281.313 1151.732 C 1308.153 1160.512 1333.92 1174.068 1359.438 1186.062 L 1361.6180000000002 1187.0839999999998 C 1370.8965073148097 1191.4459603121927 1380.0545653325892 1196.059668830034 1389.0820000000003 1200.92 C 1393.016 1203.0259999999998 1397.0010000000002 1205.022 1401 1206.9999999999998 C 1442.28 1227.5589999999997 1442.28 1227.5589999999997 1449 1240.9999999999998 C 1449.714 1247.6289999999997 1449.902 1253.5599999999997 1445.708 1259.0099999999998 C 1439.411 1266.3469999999998 1431.7250000000001 1271.2969999999998 1423.375 1275.9999999999998 L 1420.146 1277.8449999999998 C 1417.1036162224111 1279.5744566894532 1414.05492924253 1281.2928014720121 1410.9999999999998 1282.9999999999998 L 1408.817 1284.236 C 1363.14 1310.029 1313.606 1326.4180000000001 1261 1316 L 1258.458 1315.512 C 1205.7 1305.085 1114.0240000000001 1265.222 1082 1220.1879999999999 C 1080.283 1214.714 1079.568 1209.0569999999998 1082.066 1203.723 C 1103.6480000000001 1173.085 1170.733 1159.55 1205 1150 L 1207.38 1149.294 C 1229.931 1142.711 1256.7990000000002 1143.826 1279 1151" stroke-linecap="round" />
</g>
		<g transform="matrix(0.12949506955983586 0 0 0.12949506955983586 -95.12899264867485 33.59874514645496)"  >
<path style="stroke: none; stroke-width: 1; stroke-dasharray: none; stroke-linecap: butt; stroke-dashoffset: 0; stroke-linejoin: miter; stroke-miterlimit: 4; fill: rgb(12,68,172); fill-rule: nonzero; opacity: 1;"  paint-order="stroke"  transform=" translate(-289.474971002872, -1289.6226273496336)" d="M 451.438 1228.438 L 453.551 1229.364 C 462.152 1233.2640000000001 469.505 1238.511 474 1246.999 C 475.058 1254.059 472.933 1259.138 469 1264.999 C 448.59 1289.696 411.781 1303.7160000000001 384 1317.999 L 381.012 1319.545 C 250.089 1387.0790000000002 250.089 1387.0790000000002 192.232 1369.723 C 172.334 1363.276 153.618 1353.59 135.75 1342.8129999999999 C 134.822 1342.254 133.894 1341.697 132.938 1341.1229999999998 C 108.57999999999998 1326.1179999999997 108.57999999999998 1326.1179999999997 105.41099999999999 1316.1439999999998 C 104.18699999999998 1309.7529999999997 104.24299999999998 1303.6269999999997 107.582 1297.9179999999997 C 118.27699999999999 1283.4509999999996 138.755 1275.2979999999998 154.56199999999998 1267.7499999999998 L 159.68499999999997 1265.2799999999997 C 174.99499999999998 1257.9179999999997 190.42499999999998 1250.8329999999999 205.94199999999998 1243.9189999999996 Q 209.09399999999997 1242.5089999999996 212.24499999999998 1241.0939999999996 C 230.91899999999998 1232.7079999999996 249.70799999999997 1224.7519999999995 268.767 1217.2799999999995 Q 273.115 1215.5569999999996 277.433 1213.7619999999995 C 340.938 1187.4739999999995 390.613 1201.7249999999995 451.438 1228.4379999999994" stroke-linecap="round" />
</g>
		<g transform="matrix(0.12949506955983586 0 0 0.12949506955983586 95.2386181936406 32.87585084773468)"  >
<path style="stroke: none; stroke-width: 1; stroke-dasharray: none; stroke-linecap: butt; stroke-dashoffset: 0; stroke-linejoin: miter; stroke-miterlimit: 4; fill: rgb(12,68,172); fill-rule: nonzero; opacity: 1;"  paint-order="stroke"  transform=" translate(-1759.551102004541, -1284.0402194542785)" d="M 1696.734 1195.84 C 1706.424 1195.558 1715.591 1196.647 1725 1199 L 1727.348 1199.588 C 1761.283 1208.416 1793.639 1224.57 1825.51 1238.882 Q 1829.077 1240.4840000000002 1832.645 1242.0810000000001 C 1851.919440897066 1250.717556590755 1871.0407224243054 1259.691940296304 1889.9999999999998 1268.9999999999998 L 1893.603 1270.76 C 1897.115 1272.477 1900.6200000000001 1274.206 1904.125 1275.938 L 1907.265 1277.4750000000001 C 1916.2250000000001 1281.9350000000002 1925.057 1286.7800000000002 1932.4370000000001 1293.6250000000002 C 1933.611 1294.6950000000002 1933.611 1294.6950000000002 1934.8080000000002 1295.7890000000002 C 1939.2420000000002 1300.2630000000001 1943.2110000000002 1304.6140000000003 1943.5000000000002 1311.1250000000002 C 1943.2620000000002 1319.1610000000003 1938.2430000000002 1325.1050000000002 1932.6870000000001 1330.5000000000002 C 1899.46 1358.5480000000002 1852.009 1374.6540000000002 1809.0000000000002 1372.0000000000002 C 1801.4770000000003 1371.0790000000002 1794.2470000000003 1369.1720000000003 1787.0000000000002 1367.0000000000002 L 1784.4060000000002 1366.2370000000003 C 1758.5720000000001 1358.4940000000004 1734.294 1346.5740000000003 1710.0300000000002 1334.9700000000003 Q 1707.1720000000003 1333.6050000000002 1704.3100000000002 1332.2500000000002 C 1674.8670000000002 1318.3040000000003 1645.4720000000002 1303.8500000000001 1617.353 1287.3720000000003 C 1614.9903710658793 1285.9995752379 1612.617301952141 1284.6452024595435 1610.2339999999997 1283.309 C 1597.3390000000002 1275.9940000000001 1584.7250000000001 1267.6620000000003 1577.0000000000002 1254.6250000000002 C 1575.3050000000003 1248.4810000000002 1574.8220000000001 1242.6630000000002 1577.4370000000001 1236.7500000000002 C 1588.777 1224.5800000000002 1604.891 1219.3780000000002 1620.2500000000002 1214.0630000000003 L 1622.4600000000003 1213.2910000000004 C 1646.7800000000002 1204.8060000000005 1670.8260000000002 1196.9510000000005 1696.7340000000004 1195.8400000000004" stroke-linecap="round" />
</g>
		<g transform="matrix(0.12949506955983586 0 0 0.12949506955983586 0.2844817132942694 10.641055175461647)"  >
<path style="stroke: none; stroke-width: 1; stroke-dasharray: none; stroke-linecap: butt; stroke-dashoffset: 0; stroke-linejoin: miter; stroke-miterlimit: 4; fill: rgb(12,68,172); fill-rule: nonzero; opacity: 1;"  paint-order="stroke"  transform=" translate(-1026.2866093632147, -1112.3364183145836)" d="M 1054.898 1045.082 L 1057.635 1046.005 C 1067.327 1049.3480000000002 1076.656 1053.421 1086 1057.625 Q 1088.703 1058.83 1091.407 1060.031 Q 1096.764 1062.415 1102.1119999999999 1064.8139999999999 C 1106.3079999999998 1066.694 1110.514 1068.5489999999998 1114.7259999999999 1070.3939999999998 C 1127.886 1076.1809999999998 1140.899 1082.2539999999997 1153.8459999999998 1088.4999999999998 Q 1156.3899999999999 1089.7269999999999 1158.9379999999999 1090.9459999999997 C 1192.908 1107.2169999999996 1192.908 1107.2169999999996 1198.9999999999998 1119.9999999999998 C 1199.8319999999999 1123.9959999999999 1199.0049999999999 1126.4379999999999 1197.1249999999998 1129.9369999999997 C 1190.5309999999997 1139.3679999999997 1178.7179999999998 1143.9289999999996 1168.6249999999998 1148.7499999999998 L 1166.4389999999999 1149.8009999999997 C 1133.3339999999998 1165.6889999999996 1096.8529999999998 1180.5499999999997 1059.9999999999998 1183.9999999999998 L 1057.2529999999997 1184.2589999999998 C 990.1229999999997 1189.8129999999999 915.1489999999997 1176.4349999999997 859.9999999999998 1134.9999999999998 C 856.0469999999998 1131.3549999999998 853.7199999999998 1127.9959999999999 853.2499999999998 1122.5619999999997 C 853.7599999999998 1116.1159999999998 857.2629999999998 1111.4309999999996 861.9919999999997 1107.2299999999996 C 876.0429999999998 1096.8499999999995 892.6439999999998 1089.5329999999997 908.1379999999997 1081.5679999999995 L 910.0029999999997 1080.6089999999995 L 911.8489999999997 1079.6609999999994 C 916.1246028000616 1077.454777464603 920.3840495348799 1075.2173845639845 924.6269999999997 1072.9489999999992 C 935.0369999999997 1067.3969999999995 945.6419999999997 1062.2969999999993 956.3139999999997 1057.2709999999993 C 958.773557655836 1056.1056467536878 961.227255182032 1054.927965275621 963.6749999999996 1053.7379999999996 C 993.4559999999997 1039.3429999999994 1022.7199999999997 1034.1499999999994 1054.8979999999997 1045.0819999999994" stroke-linecap="round" />
</g>
		<g transform="matrix(0.12949506955983586 0 0 0.12949506955983586 -57.42686608657327 16.365454360338216)"  >
<path style="stroke: none; stroke-width: 1; stroke-dasharray: none; stroke-linecap: butt; stroke-dashoffset: 0; stroke-linejoin: miter; stroke-miterlimit: 4; fill: rgb(12,68,172); fill-rule: nonzero; opacity: 1;"  paint-order="stroke"  transform=" translate(-580.6221682687926, -1156.5419560569414)" d="M 713.938 1100.75 L 716.736 1101.707 C 746.0459999999999 1111.7710000000002 746.0459999999999 1111.7710000000002 753 1122 C 754.33 1126.319 753.242 1129.384 751.625 1133.5 C 737.235 1155.255 698.542 1169.347 676.16 1180.824 C 671.5929093865392 1183.1707983731255 667.0600992645266 1185.5837188455184 662.5629999999999 1188.0620000000001 C 621.192 1210.1930000000002 576.179 1228.4620000000002 528.75 1228.438 L 526.303 1228.439 C 513.212 1228.401 501.486 1227.122 489 1223 Q 486.16 1222.134 483.32 1221.273 C 419.731 1201.491 419.731 1201.491 408.786 1182.9409999999998 C 407.217 1179.0649999999998 407.301 1175.754 408.851 1171.8629999999998 C 419.849 1152.533 453.212 1142.86 472.586 1133.9689999999998 C 477.62374003869 1131.6587316476332 482.61666010322796 1129.2519548082971 487.562 1126.7499999999998 C 569.49 1085.2919999999997 625.607 1070.2979999999998 713.938 1100.7499999999998" stroke-linecap="round" />
</g>
		<g transform="matrix(0.12949506955983586 0 0 0.12949506955983586 56.82864846077133 16.205319084584474)"  >
<path style="stroke: none; stroke-width: 1; stroke-dasharray: none; stroke-linecap: butt; stroke-dashoffset: 0; stroke-linejoin: miter; stroke-miterlimit: 4; fill: rgb(12,68,172); fill-rule: nonzero; opacity: 1;"  paint-order="stroke"  transform=" translate(-1462.9377261947293, -1155.3053431395688)" d="M 1454 1088 L 1457.86 1089.255 C 1490.271 1099.833 1521.5 1113.276 1552.3349999999998 1127.7630000000001 C 1556.1349999999998 1129.527 1559.9719999999998 1131.2010000000002 1563.812 1132.8750000000002 C 1625.502 1160.0040000000001 1625.502 1160.0040000000001 1632 1173.0000000000002 C 1632.543 1177.4550000000002 1632.451 1181.0190000000002 1630.562 1185.1250000000002 C 1624.5569999999998 1191.8630000000003 1617.1719999999998 1196.3330000000003 1609.125 1200.2500000000002 L 1606.288 1201.6470000000002 C 1588.796 1210.1050000000002 1570.611 1217.3980000000001 1552 1223.0000000000002 L 1548.836 1223.9530000000002 C 1516.654 1232.8010000000002 1480.448 1228.3280000000002 1449.5 1217.1250000000002 L 1447.503 1216.4100000000003 C 1413.677 1204.2610000000004 1381.4789999999998 1188.2490000000003 1350 1171.0000000000002 L 1346.913 1169.3240000000003 C 1300.0240000000001 1143.8240000000003 1300.0240000000001 1143.8240000000003 1294 1132.0000000000002 C 1293.187 1127.4230000000002 1293.518 1124.0250000000003 1295.5 1119.8120000000001 C 1301.032 1113.5890000000002 1307.446 1109.9850000000001 1315.16 1107.074 L 1317.777 1106.059 C 1326.666 1102.657 1335.672 1099.613 1344.727 1096.69 C 1347.4370000000001 1095.813 1350.141 1094.92 1352.846 1094.025 C 1361.936 1091.0510000000002 1371.044 1088.365 1380.348 1086.1370000000002 L 1382.927 1085.5190000000002 C 1405.5179999999998 1080.3050000000003 1431.992 1080.6030000000003 1454 1088.0000000000002" stroke-linecap="round" />
</g>
		<g transform="matrix(0.12949506955983586 0 0 0.12949506955983586 26.50562346065118 2.1386213715722935)"  >
<path style="stroke: none; stroke-width: 1; stroke-dasharray: none; stroke-linecap: butt; stroke-dashoffset: 0; stroke-linejoin: miter; stroke-miterlimit: 4; fill: rgb(12,68,172); fill-rule: nonzero; opacity: 1;"  paint-order="stroke"  transform=" translate(-1228.7741777045005, -1046.6780590211388)" d="M 1199.25 985.625 L 1201.715 985.601 C 1217.1989999999998 985.485 1231.019 987.952 1245.75 992.937 L 1249.243 994.112 C 1260.984 998.17 1272.2079999999999 1003.228 1283.4869999999999 1008.409 C 1288.9709999999998 1010.893 1294.5069999999998 1013.254 1300.042 1015.624 C 1314.019 1021.619 1327.845 1027.904 1341.6 1034.396 C 1343.8886230100995 1035.4756367773916 1346.1789592318953 1036.5516381343928 1348.4709999999986 1037.6239999999991 Q 1353.521 1039.988 1358.562 1042.375 L 1361.57 1043.78 C 1384.309 1054.619 1384.309 1054.619 1388 1062 C 1388.401 1065.611 1388.38 1067.419 1386.367 1070.496 C 1376.724 1080.6970000000001 1356.878 1084.5600000000002 1344 1089 L 1340.26 1090.296 C 1325.016 1095.567 1309.79 1100.615 1294 1104 L 1291.901 1104.487 C 1269.7810000000002 1109.5600000000002 1245.915 1108.48 1224 1103 L 1221.53 1102.399 C 1207.8999999999999 1098.981 1195.287 1093.4669999999999 1182.545 1087.6229999999998 C 1178.790976227775 1085.9082315090495 1175.0312889809538 1084.2058888572615 1171.2660000000003 1082.5159999999998 C 1155.3880000000001 1075.3619999999999 1139.5980000000002 1068.032 1123.8600000000001 1060.5749999999998 C 1117.0380000000002 1057.3459999999998 1110.2030000000002 1054.1709999999998 1103.287 1051.1459999999997 C 1075.859 1039.1389999999997 1075.859 1039.1389999999997 1070 1028.9999999999998 C 1069.125 1025.9999999999998 1069.125 1025.9999999999998 1070 1022.9999999999998 C 1074.363 1015.9509999999998 1080.672 1012.4369999999998 1088 1008.9999999999998 L 1090.531 1007.7299999999998 C 1100.202 1003.2509999999997 1110.677 1001.1669999999998 1121 998.7179999999998 C 1127.007 997.2809999999998 1132.992 995.7569999999998 1138.981 994.2499999999999 C 1146.3017533187096 992.4216046878635 1153.641839191279 990.671504736413 1160.9999999999993 989.0000000000001 L 1163.384 988.435 C 1175.218 985.709 1187.166 985.6919999999999 1199.25 985.625" stroke-linecap="round" />
</g>
		<g transform="matrix(0.12949506955983586 0 0 0.12949506955983586 -26.841161111919906 2.2725307005873754)"  >
<path style="stroke: none; stroke-width: 1; stroke-dasharray: none; stroke-linecap: butt; stroke-dashoffset: 0; stroke-linejoin: miter; stroke-miterlimit: 4; fill: rgb(12,68,172); fill-rule: nonzero; opacity: 1;"  paint-order="stroke"  transform=" translate(-816.8142107814272, -1047.7121472645772)" d="M 923 1001 L 929.375 1002.75 C 936.0271384123126 1004.6805952575069 942.652749437304 1006.7014482906386 949.2499999999995 1008.8119999999997 L 952.298 1009.743 C 960.232 1012.32 968.242 1015.863 973 1023 C 973.607 1026.439 973.638 1028.84 971.926 1031.953 C 963.0150000000001 1043.356 945.552 1049.3999999999999 932.875 1055.766 L 930.152 1057.136 C 925.3864413607647 1059.5335303489753 920.6187728463553 1061.9268646098617 915.8489999999993 1064.3160000000003 Q 910.037 1067.227 904.2370000000001 1070.163 C 833.5 1105.94 833.5 1105.94 799 1108 L 796.833 1108.137 C 756.367 1110.318 715.562 1095.722 678.625 1080.75 L 675.672 1079.575 C 670.0980000000001 1077.2450000000001 664.98 1074.6770000000001 661 1070 C 660 1066.625 660 1066.625 661 1063 C 666.101 1057.446 672.199 1053.268 678.75 1049.625 L 681.388 1048.138 C 696.571 1039.7579999999998 712.341 1032.437 728 1025 L 730.016 1024.041 C 748.489 1015.26 767.15 1006.936 786 999 L 789.004 997.721 C 832.725 979.265 878.859 987.724 923 1001" stroke-linecap="round" />
</g>
		<g transform="matrix(0.12949506955983586 0 0 0.12949506955983586 -0.4473385632893887 -9.019064486469492)"  >
<path style="stroke: none; stroke-width: 1; stroke-dasharray: none; stroke-linecap: butt; stroke-dashoffset: 0; stroke-linejoin: miter; stroke-miterlimit: 4; fill: rgb(12,68,172); fill-rule: nonzero; opacity: 1;"  paint-order="stroke"  transform=" translate(-1020.6352723735432, -960.5150421899368)" d="M 1061.938 920.813 L 1064.433 921.678 C 1080.941 927.413 1097.005 933.981 1112.999 941 L 1120.2540000000001 944.133 C 1130.5980000000002 948.628 1140.8560000000002 953.254 1150.8760000000002 958.437 C 1151.6360000000002 958.827 1152.3960000000002 959.216 1153.1800000000003 959.615 C 1157.4640000000004 961.895 1160.8060000000003 964.256 1164.0000000000002 968 C 1164.8130000000003 970.875 1164.8130000000003 970.875 1164.0000000000002 974 C 1155.7260000000003 984.917 1138.3850000000002 988.37 1125.8130000000003 992.063 L 1121.4030000000002 993.3729999999999 C 1117.2730000000001 994.597 1113.1380000000001 995.8009999999999 1108.9990000000003 996.9999999999999 L 1106.0210000000002 997.8739999999999 C 1092.8780000000002 1001.6959999999999 1079.5430000000001 1004.074 1065.9990000000003 1005.9999999999999 C 1064.8770000000002 1006.1799999999998 1063.7540000000004 1006.3599999999999 1062.5970000000002 1006.5429999999999 C 1048.919 1008.4869999999999 1035.1600000000003 1008.3749999999999 1021.3750000000002 1008.3699999999999 Q 1017.0860000000002 1008.3699999999999 1012.7980000000002 1008.4119999999999 C 978.6250000000002 1008.7339999999999 946.8840000000002 1002.7549999999999 914.4380000000002 992.1239999999999 L 912.1630000000002 991.3889999999999 C 903.8780000000003 988.6969999999999 895.9080000000002 985.6819999999999 888.0970000000002 981.8039999999999 L 886.0650000000002 980.7969999999999 C 880.0380000000001 977.6979999999999 880.0380000000001 977.6979999999999 877.9990000000001 974.9999999999999 C 876.4430000000001 970.0829999999999 876.4430000000001 970.0829999999999 876.9990000000001 966.9999999999999 C 881.6570000000002 961.2759999999998 888.5250000000001 957.6589999999999 894.9370000000001 954.2499999999999 L 897.8310000000001 952.6969999999999 C 924.59 938.579 953.975 926.626 983 918 L 985.505 917.23 C 1011.253 909.491 1036.891 911.995 1061.938 920.812" stroke-linecap="round" />
</g>
</g>
</g>
<g transform="matrix(1.9211538461538462 0 0 1.9211538461538462 642.1321726082562 703.6452825717249)" id="text-logo"  >
<g style=""  paint-order="stroke"   >
		<g transform="matrix(1 0 0 1 0 0)" id="text-logo-path-0"  >
<path style="stroke: none; stroke-width: 0; stroke-dasharray: none; stroke-linecap: butt; stroke-dashoffset: 0; stroke-linejoin: miter; stroke-miterlimit: 4; fill: rgb(12,68,172); fill-rule: nonzero; opacity: 1;"  paint-order="stroke"  transform=" translate(-224.05010209333386, 21.17)" d="M 30.93 0.5 C 33.26 0.5 35.15 0.25 36.67 -0.25 C 37.99 -0.69 38.37 -1.51 37.93 -2.96 L 36.04 -9.13 C 35.78 -9.95 35.47 -10.08 34.59 -9.89 C 34.08 -9.77 33.58 -9.7 33.01 -9.7 C 30.93 -9.7 28.85 -13.54 27.78 -17.51 C 32.45 -19.59 36.04 -22.18 36.04 -29.86 C 36.04 -39.82 28.22 -42.84 21.11 -42.84 L 10.46 -42.84 L 10.21 -42.84 L 9.89 -42.84 L 7.12 -42.84 C 3.97 -42.84 2.77 -41.64 2.77 -38.49 L 2.77 -4.35 C 2.77 -1.2 3.97 0 7.12 0 L 9.89 0 C 13.04 0 14.24 -1.2 14.24 -4.35 L 14.24 -14.11 L 17.64 -14.11 C 20.22 -5.61 23.75 0.5 30.93 0.5 Z M 14.24 -24.07 L 14.24 -32.89 L 20.41 -32.89 C 23.69 -32.89 24.82 -30.87 24.82 -28.48 C 24.82 -26.08 23.69 -24.07 20.41 -24.07 Z M 45.61 0 L 48.38 0 L 48.7 0 L 48.95 0 L 66.72 0 C 69.87 0 71.06 -1.2 71.06 -4.35 L 71.06 -5.99 C 71.06 -9.13 69.87 -10.33 66.72 -10.33 L 52.73 -10.33 L 52.73 -16.25 L 63.82 -16.25 C 66.97 -16.25 68.17 -17.45 68.17 -20.6 L 68.17 -22.24 C 68.17 -25.39 66.97 -26.59 63.82 -26.59 L 52.73 -26.59 L 52.73 -32.51 L 66.09 -32.51 C 69.24 -32.51 70.43 -33.7 70.43 -36.85 L 70.43 -38.49 C 70.43 -41.64 69.24 -42.84 66.09 -42.84 L 48.95 -42.84 L 48.7 -42.84 L 48.38 -42.84 L 45.61 -42.84 C 42.46 -42.84 41.27 -41.64 41.27 -38.49 L 41.27 -4.35 C 41.27 -1.2 42.46 0 45.61 0 Z M 79.44 0 L 81.08 0 C 84.17 0 85.43 -1.26 85.43 -4.35 L 85.43 -26.21 L 100.55 -3.59 C 102.25 -1.01 104.2 0 107.29 0 L 108.36 0 C 111.45 0 112.71 -1.26 112.71 -4.35 L 112.71 -38.49 C 112.71 -41.58 111.45 -42.84 108.36 -42.84 L 106.72 -42.84 C 103.64 -42.84 102.38 -41.58 102.38 -38.49 L 102.38 -21.17 L 90.28 -39.25 C 88.58 -41.83 86.63 -42.84 83.54 -42.84 L 79.44 -42.84 C 76.36 -42.84 75.1 -41.58 75.1 -38.49 L 75.1 -4.35 C 75.1 -1.26 76.36 0 79.44 0 Z M 122.6 0 L 125.37 0 L 125.69 0 L 125.94 0 L 143.7 0 C 146.85 0 148.05 -1.2 148.05 -4.35 L 148.05 -5.99 C 148.05 -9.13 146.85 -10.33 143.7 -10.33 L 129.72 -10.33 L 129.72 -16.25 L 140.81 -16.25 C 143.96 -16.25 145.15 -17.45 145.15 -20.6 L 145.15 -22.24 C 145.15 -25.39 143.96 -26.59 140.81 -26.59 L 129.72 -26.59 L 129.72 -32.51 L 143.07 -32.51 C 146.22 -32.51 147.42 -33.7 147.42 -36.85 L 147.42 -38.49 C 147.42 -41.64 146.22 -42.84 143.07 -42.84 L 125.94 -42.84 L 125.69 -42.84 L 125.37 -42.84 L 122.6 -42.84 C 119.45 -42.84 118.25 -41.64 118.25 -38.49 L 118.25 -4.35 C 118.25 -1.2 119.45 0 122.6 0 Z M 164.3 0 L 165 0 C 168.15 0 169.66 -1.2 170.48 -4.22 L 176.34 -25.77 L 182.26 -4.16 C 183.08 -1.13 184.59 0 187.74 0 L 189 0 C 192.15 0 193.66 -1.2 194.42 -4.22 L 202.99 -38.62 C 203.74 -41.64 202.86 -42.84 199.71 -42.84 L 198.7 -42.84 C 195.55 -42.84 194.1 -41.64 193.41 -38.62 L 188.81 -17.51 L 183.27 -38.62 C 182.45 -41.64 181 -42.84 177.85 -42.84 L 175.96 -42.84 C 172.81 -42.84 171.36 -41.64 170.54 -38.62 L 165.31 -18.77 L 160.97 -38.62 C 160.27 -41.64 158.82 -42.84 155.67 -42.84 L 153.59 -42.84 C 150.44 -42.84 149.56 -41.64 150.32 -38.62 L 158.89 -4.22 C 159.64 -1.2 161.15 0 164.3 0 Z M 202.04 0 L 205.95 0 C 208.66 0 210.04 -1.01 210.86 -3.59 L 212.75 -9.39 L 226.74 -9.39 L 228.63 -3.59 C 229.45 -1.01 230.83 0 233.54 0 L 237.45 0 C 240.16 0 240.91 -1.01 240.03 -3.59 L 227.93 -39.25 C 227.05 -41.83 225.67 -42.84 222.96 -42.84 L 216.53 -42.84 C 213.82 -42.84 212.44 -41.83 211.55 -39.25 L 199.46 -3.59 C 198.58 -1.01 199.33 0 202.04 0 Z M 215.78 -18.71 L 219.74 -31.06 L 223.71 -18.71 Z M 248.28 0 L 263.91 0 C 274.24 0 278.78 -3.59 278.78 -11.78 C 278.78 -16.88 276 -19.59 271.53 -21.36 C 274.93 -23.25 277.2 -25.77 277.2 -31.31 C 277.2 -40.13 269.64 -42.84 263.97 -42.84 L 248.28 -42.84 C 245.13 -42.84 243.94 -41.64 243.94 -38.49 L 243.94 -4.35 C 243.94 -1.2 245.13 0 248.28 0 Z M 255.4 -9.83 L 255.4 -16.51 L 262.84 -16.51 C 265.73 -16.51 267.18 -15.62 267.18 -13.23 C 267.18 -10.84 265.55 -9.83 262.77 -9.83 Z M 255.4 -26.33 L 255.4 -33.01 L 261.45 -33.01 C 264.47 -33.01 265.61 -31.44 265.61 -29.67 C 265.61 -27.91 264.47 -26.33 261.45 -26.33 Z M 287.15 0 L 305.8 0 C 308.95 0 310.15 -1.2 310.15 -4.35 L 310.15 -5.99 C 310.15 -9.13 308.95 -10.33 305.8 -10.33 L 294.27 -10.33 L 294.27 -38.49 C 294.27 -41.64 293.08 -42.84 289.93 -42.84 L 287.15 -42.84 C 284 -42.84 282.81 -41.64 282.81 -38.49 L 282.81 -4.35 C 282.81 -1.2 284 0 287.15 0 Z M 321.24 0.25 L 327.03 0.25 C 329.74 0.25 330.81 -0.82 330.81 -3.53 L 330.81 -16.7 L 343.73 -39.56 C 345.05 -41.96 344.48 -42.84 341.78 -42.84 L 336.99 -42.84 C 334.28 -42.84 332.7 -41.9 331.44 -39.5 L 324.45 -26.52 L 317.46 -39.5 C 316.2 -41.9 314.62 -42.84 311.91 -42.84 L 306.75 -42.84 C 304.04 -42.84 303.47 -41.96 304.79 -39.56 L 317.46 -16.7 L 317.46 -3.53 C 317.46 -0.82 318.53 0.25 321.24 0.25 Z M 384.05 0.5 C 395.89 0.5 403.77 -6.24 403.77 -18.65 L 403.77 -38.81 C 403.77 -41.52 402.7 -42.59 399.99 -42.59 L 395.96 -42.59 C 393.25 -42.59 392.18 -41.52 392.18 -38.81 L 392.18 -18.84 C 392.18 -12.54 388.96 -9.83 384.05 -9.83 C 379.13 -9.83 375.92 -12.54 375.92 -18.9 L 375.92 -39.06 C 375.92 -41.77 374.85 -42.84 372.14 -42.84 L 368.11 -42.84 C 365.4 -42.84 364.33 -41.77 364.33 -39.06 L 364.33 -18.77 C 364.33 -6.3 372.2 0.5 384.05 0.5 Z M 437.85 0 L 442.45 0 C 445.54 0 446.1 -0.95 444.34 -3.53 L 431.11 -22.49 L 443.02 -39.31 C 444.84 -41.83 444.28 -42.84 441.19 -42.84 L 437.47 -42.84 C 434.38 -42.84 432.5 -41.77 430.79 -39.19 L 420.78 -23.81 L 420.78 -38.49 C 420.78 -41.64 419.58 -42.84 416.43 -42.84 L 413.66 -42.84 C 410.51 -42.84 409.31 -41.64 409.31 -38.49 L 409.31 -4.35 C 409.31 -1.2 410.51 0 413.66 0 L 416.43 0 C 419.58 0 420.78 -1.2 420.78 -4.35 L 420.78 -16.25 L 421.28 -17.01 L 430.98 -3.53 C 432.81 -1.01 434.76 0 437.85 0 Z" stroke-linecap="round" />
</g>
</g>
</g>
<g transform="matrix(1.9211538461538462 0 0 1.9211538461538462 640.0557134615389 799.2052772730065)" id="tagline-50d4ee6d-9111-4d78-a719-9ba1f91d2625-logo"  >
<g style=""  paint-order="stroke"   >
		<g transform="matrix(1 0 0 1 0 0)" id="tagline-50d4ee6d-9111-4d78-a719-9ba1f91d2625-logo-path-0"  >
<path style="stroke: none; stroke-width: 0; stroke-dasharray: none; stroke-linecap: butt; stroke-dashoffset: 0; stroke-linejoin: miter; stroke-miterlimit: 4; fill: rgb(12,68,172); fill-rule: nonzero; opacity: 1;"  paint-order="stroke"  transform=" translate(-266.90000000000003, 10.139999999999999)" d="M 3.19 -0.93 L 3.19 -8.21 L 8.09 -8.21 C 11.37 -8.21 14.09 -10.96 14.09 -14.3 C 14.09 -17.57 11.37 -20.3 8.09 -20.3 L 2.32 -20.3 C 1.68 -20.3 1.16 -19.78 1.16 -19.14 L 1.16 -0.93 C 1.16 -0.35 1.62 0.09 2.18 0.09 C 2.76 0.12 3.19 -0.35 3.19 -0.93 Z M 3.19 -10.24 L 3.19 -18.27 L 8.09 -18.27 C 10.27 -18.27 12.06 -16.47 12.06 -14.3 C 12.06 -12.06 10.27 -10.24 8.09 -10.24 Z M 38.48 -2.03 C 33.93 -2.03 30.33 -5.63 30.33 -10.18 C 30.33 -14.67 33.93 -18.27 38.48 -18.27 C 42.95 -18.27 46.57 -14.67 46.57 -10.18 C 46.57 -5.63 42.95 -2.03 38.48 -2.03 Z M 38.48 0 C 44.05 0 48.6 -4.52 48.6 -10.18 C 48.6 -15.78 44.05 -20.3 38.48 -20.3 C 32.83 -20.3 28.3 -15.78 28.3 -10.18 C 28.3 -4.52 32.83 0 38.48 0 Z M 62.55 -19.14 L 68.12 -0.9 C 68.44 0.23 70.06 0.35 70.5 -0.81 L 75.72 -14.38 L 80.62 -0.84 C 81.06 0.32 82.56 0.32 82.97 -0.84 L 88.91 -19.14 C 89.12 -19.81 88.62 -20.45 87.93 -20.45 C 87.49 -20.45 87.09 -20.13 86.97 -19.72 L 81.75 -3.68 L 76.91 -17.05 C 76.47 -18.18 74.97 -18.18 74.56 -17.08 L 69.4 -3.65 L 64.52 -19.69 C 64.41 -20.1 64 -20.45 63.54 -20.45 C 62.9 -20.45 62.38 -19.78 62.55 -19.14 Z M 114.93 -2.03 L 104.92 -2.03 L 104.92 -9.13 L 112.9 -9.13 C 113.45 -9.13 113.91 -9.6 113.91 -10.15 C 113.88 -10.73 113.45 -11.17 112.9 -11.17 L 104.92 -11.17 L 104.92 -18.27 L 114.93 -18.27 C 115.48 -18.27 115.94 -18.73 115.94 -19.29 C 115.91 -19.87 115.48 -20.3 114.93 -20.3 L 104.05 -20.3 C 103.41 -20.3 102.89 -19.78 102.89 -19.14 L 102.89 -1.16 C 102.89 -0.52 103.41 0 104.05 0 L 114.93 0 C 115.48 0 115.94 -0.46 115.94 -1.02 C 115.91 -1.59 115.48 -2.03 114.93 -2.03 Z M 131.89 -0.93 L 131.89 -8.21 L 136.79 -8.21 L 136.88 -8.21 L 140.68 -0.55 C 140.82 -0.26 141.2 0 141.58 0 C 142.13 0 142.59 -0.46 142.59 -1.02 C 142.59 -1.16 142.53 -1.36 142.48 -1.48 L 138.94 -8.61 C 141.2 -9.51 142.8 -11.72 142.8 -14.3 C 142.8 -17.57 140.07 -20.3 136.79 -20.3 L 131.02 -20.3 C 130.38 -20.3 129.86 -19.78 129.86 -19.14 L 129.86 -0.93 C 129.86 -0.35 130.33 0.09 130.88 0.09 C 131.46 0.12 131.89 -0.35 131.89 -0.93 Z M 131.89 -10.24 L 131.89 -18.27 L 136.79 -18.27 C 138.97 -18.27 140.77 -16.47 140.77 -14.3 C 140.77 -12.06 138.97 -10.24 136.79 -10.24 Z M 157.73 -18.27 L 159.44 -18.27 L 159.44 -2.03 L 157.73 -2.03 C 157.15 -2.03 156.72 -1.57 156.72 -1.02 C 156.69 -0.43 157.15 0 157.73 0 L 163.18 0 C 163.73 0 164.2 -0.46 164.2 -1.02 C 164.17 -1.59 163.73 -2.03 163.18 -2.03 L 161.47 -2.03 L 161.47 -18.27 L 163.18 -18.27 C 163.73 -18.27 164.2 -18.73 164.2 -19.29 C 164.17 -19.87 163.73 -20.3 163.18 -20.3 L 157.73 -20.3 C 157.15 -20.3 156.72 -19.84 156.72 -19.29 C 156.69 -18.71 157.15 -18.27 157.73 -18.27 Z M 180.15 -0.93 L 180.09 -16.59 L 192.1 -0.49 C 192.85 0.46 194.36 -0.06 194.36 -1.25 L 194.36 -19.4 C 194.36 -19.95 193.89 -20.42 193.34 -20.42 C 192.76 -20.39 192.33 -19.95 192.33 -19.4 L 192.33 -3.57 L 180.18 -19.87 C 179.48 -20.79 178.06 -20.21 178.06 -19.08 L 178.12 -0.9 C 178.12 -0.38 178.58 0.12 179.13 0.12 C 179.65 0.12 180.15 -0.38 180.15 -0.93 Z M 220.46 -9.13 L 223.97 -9.13 L 223.97 -4.18 C 222.49 -2.84 220.57 -2.03 218.46 -2.03 C 213.9 -2.03 210.31 -5.63 210.31 -10.18 C 210.31 -14.67 213.9 -18.27 218.46 -18.27 C 220.02 -18.27 221.47 -17.84 222.75 -17.05 C 222.92 -16.94 223.07 -16.91 223.27 -16.91 C 223.82 -16.91 224.29 -17.34 224.29 -17.92 C 224.29 -18.27 224.08 -18.62 223.79 -18.79 C 222.23 -19.75 220.4 -20.3 218.46 -20.3 C 212.8 -20.3 208.28 -15.78 208.28 -10.18 C 208.28 -4.52 212.8 0 218.46 0 C 221.33 0 223.97 -1.25 225.79 -3.16 C 225.82 -3.19 226 -3.54 226 -3.83 L 226 -10.01 C 226 -10.64 225.47 -11.17 224.84 -11.17 L 220.46 -11.17 C 219.88 -11.17 219.44 -10.7 219.44 -10.15 C 219.41 -9.57 219.88 -9.13 220.46 -9.13 Z M 259.35 -0.93 L 259.35 -8.21 L 264.25 -8.21 L 264.33 -8.21 L 268.13 -0.55 C 268.28 -0.26 268.66 0 269.03 0 C 269.58 0 270.05 -0.46 270.05 -1.02 C 270.05 -1.16 269.99 -1.36 269.93 -1.48 L 266.39 -8.61 C 268.66 -9.51 270.25 -11.72 270.25 -14.3 C 270.25 -17.57 267.52 -20.3 264.25 -20.3 L 258.48 -20.3 C 257.84 -20.3 257.32 -19.78 257.32 -19.14 L 257.32 -0.93 C 257.32 -0.35 257.78 0.09 258.33 0.09 C 258.91 0.12 259.35 -0.35 259.35 -0.93 Z M 259.35 -10.24 L 259.35 -18.27 L 264.25 -18.27 C 266.42 -18.27 268.22 -16.47 268.22 -14.3 C 268.22 -12.06 266.42 -10.24 264.25 -10.24 Z M 296.21 -2.03 L 286.2 -2.03 L 286.2 -9.13 L 294.18 -9.13 C 294.73 -9.13 295.19 -9.6 295.19 -10.15 C 295.16 -10.73 294.73 -11.17 294.18 -11.17 L 286.2 -11.17 L 286.2 -18.27 L 296.21 -18.27 C 296.76 -18.27 297.22 -18.73 297.22 -19.29 C 297.19 -19.87 296.76 -20.3 296.21 -20.3 L 285.33 -20.3 C 284.69 -20.3 284.17 -19.78 284.17 -19.14 L 284.17 -1.16 C 284.17 -0.52 284.69 0 285.33 0 L 296.21 0 C 296.76 0 297.22 -0.46 297.22 -1.02 C 297.19 -1.59 296.76 -2.03 296.21 -2.03 Z M 313.17 -0.93 L 313.11 -16.59 L 325.12 -0.49 C 325.87 0.46 327.38 -0.06 327.38 -1.25 L 327.38 -19.4 C 327.38 -19.95 326.92 -20.42 326.37 -20.42 C 325.79 -20.39 325.35 -19.95 325.35 -19.4 L 325.35 -3.57 L 313.2 -19.87 C 312.5 -20.79 311.08 -20.21 311.08 -19.08 L 311.14 -0.9 C 311.14 -0.38 311.61 0.12 312.16 0.12 C 312.68 0.12 313.17 -0.38 313.17 -0.93 Z M 353.34 -2.03 L 343.33 -2.03 L 343.33 -9.13 L 351.31 -9.13 C 351.86 -9.13 352.32 -9.6 352.32 -10.15 C 352.29 -10.73 351.86 -11.17 351.31 -11.17 L 343.33 -11.17 L 343.33 -18.27 L 353.34 -18.27 C 353.89 -18.27 354.35 -18.73 354.35 -19.29 C 354.32 -19.87 353.89 -20.3 353.34 -20.3 L 342.46 -20.3 C 341.82 -20.3 341.3 -19.78 341.3 -19.14 L 341.3 -1.16 C 341.3 -0.52 341.82 0 342.46 0 L 353.34 0 C 353.89 0 354.35 -0.46 354.35 -1.02 C 354.32 -1.59 353.89 -2.03 353.34 -2.03 Z M 368.3 -19.14 L 373.87 -0.9 C 374.19 0.23 375.81 0.35 376.25 -0.81 L 381.47 -14.38 L 386.37 -0.84 C 386.8 0.32 388.31 0.32 388.72 -0.84 L 394.66 -19.14 C 394.86 -19.81 394.37 -20.45 393.68 -20.45 C 393.24 -20.45 392.83 -20.13 392.72 -19.72 L 387.5 -3.68 L 382.66 -17.05 C 382.22 -18.18 380.71 -18.18 380.31 -17.08 L 375.14 -3.65 L 370.27 -19.69 C 370.16 -20.1 369.75 -20.45 369.29 -20.45 C 368.65 -20.45 368.13 -19.78 368.3 -19.14 Z M 425.31 -1.25 L 418.15 -19.52 C 417.75 -20.53 416.32 -20.59 415.89 -19.52 L 408.73 -1.25 C 408.67 -1.1 408.64 -0.99 408.64 -0.84 C 408.64 -0.32 409.1 0.17 409.65 0.17 C 410.06 0.17 410.47 -0.12 410.61 -0.46 L 413.08 -6.82 L 420.94 -6.82 L 423.43 -0.46 C 423.6 -0.06 423.95 0.17 424.39 0.17 C 424.91 0.17 425.4 -0.29 425.4 -0.84 C 425.4 -0.96 425.37 -1.1 425.31 -1.25 Z M 413.89 -8.85 L 417.02 -16.88 L 420.15 -8.85 Z M 417.75 -18.73 L 417.75 -18.76 Z M 441.35 -10.12 L 446.51 -10.12 C 448.78 -10.12 450.6 -8.32 450.6 -6.09 C 450.6 -3.83 448.78 -2.03 446.51 -2.03 L 441.35 -2.03 Z M 439.32 -1.16 C 439.32 -0.52 439.84 0 440.48 0 L 446.51 0 C 449.88 0 452.63 -2.67 452.63 -6.09 C 452.63 -8.61 451.12 -10.7 448.98 -11.63 C 449.88 -12.56 450.46 -13.86 450.46 -15.25 C 450.46 -18.01 448.17 -20.3 445.41 -20.3 L 440.48 -20.3 C 439.84 -20.3 439.32 -19.78 439.32 -19.14 Z M 441.35 -12.15 L 441.35 -18.27 L 445.41 -18.27 C 447.06 -18.27 448.43 -16.91 448.43 -15.25 C 448.43 -13.54 447.06 -12.15 445.41 -12.15 Z M 478.59 -2.03 L 468.58 -2.03 L 468.58 -19.4 C 468.58 -19.95 468.12 -20.42 467.57 -20.42 C 466.99 -20.39 466.55 -19.95 466.55 -19.4 L 466.55 -1.16 C 466.55 -0.52 467.07 0 467.71 0 L 478.59 0 C 479.14 0 479.6 -0.46 479.6 -1.02 C 479.57 -1.59 479.14 -2.03 478.59 -2.03 Z M 505.56 -2.03 L 495.55 -2.03 L 495.55 -9.13 L 503.53 -9.13 C 504.08 -9.13 504.54 -9.6 504.54 -10.15 C 504.51 -10.73 504.08 -11.17 503.53 -11.17 L 495.55 -11.17 L 495.55 -18.27 L 505.56 -18.27 C 506.11 -18.27 506.57 -18.73 506.57 -19.29 C 506.54 -19.87 506.11 -20.3 505.56 -20.3 L 494.68 -20.3 C 494.04 -20.3 493.52 -19.78 493.52 -19.14 L 493.52 -1.16 C 493.52 -0.52 494.04 0 494.68 0 L 505.56 0 C 506.11 0 506.57 -0.46 506.57 -1.02 C 506.54 -1.59 506.11 -2.03 505.56 -2.03 Z M 520.67 -2.7 C 521.83 -1.04 523.86 0 526.15 0 C 529.69 0 532.64 -2.64 532.64 -5.97 C 532.64 -9.92 529.57 -11.02 527.28 -11.89 C 525.05 -12.7 522.96 -13.31 522.96 -15.25 C 522.96 -16.88 524.47 -18.27 526.47 -18.27 C 527.77 -18.27 528.87 -17.69 529.51 -16.82 C 529.69 -16.56 529.98 -16.39 530.32 -16.39 C 530.87 -16.39 531.34 -16.85 531.34 -17.4 C 531.34 -17.63 531.25 -17.84 531.14 -17.98 C 530.15 -19.37 528.41 -20.3 526.47 -20.3 C 523.42 -20.3 520.93 -18.04 520.93 -15.25 C 520.93 -11.77 524.35 -10.79 526.58 -9.98 C 528.87 -9.11 530.61 -8.47 530.61 -5.97 C 530.61 -3.8 528.64 -2.03 526.15 -2.03 C 524.49 -2.03 523.1 -2.78 522.35 -3.86 C 522.17 -4.09 521.86 -4.29 521.51 -4.29 C 520.96 -4.29 520.49 -3.83 520.49 -3.28 C 520.49 -3.07 520.55 -2.87 520.67 -2.7 Z" stroke-linecap="round" />
</g>
</g>
</g>
</svg>